<svg xmlns="http://www.w3.org/2000/svg" viewBox="0 0 299.44 218.33"><title>Fichier 3</title><g id="Calque_2" data-name="Calque 2"><g id="maquettes-blog"><polygon points="53.73 113.05 60.11 70.88 111.98 79.9 114.9 44.23 163.26 66.08 159.5 20.02 202.83 48.05 234.69 3.45 250.27 61.03 294.58 63.34 252.71 89.32 283.78 141.19 232.04 122.91 229.35 193.31 175 151.13 163.29 215.47 114.67 173.07 88.13 212.45 67.44 175.23 29.51 190.78 46.08 150 4.03 109.22 53.73 113.05" fill="#f7e580" stroke="#221f20" stroke-miterlimit="10" stroke-width="3"/><path d="M73,131.63a4.23,4.23,0,0,1-2.32-2.77,4.86,4.86,0,0,1-.13-2.93,5.68,5.68,0,0,1,1.42-2.37,10.74,10.74,0,0,1,2.44-1.83,20.91,20.91,0,0,1,2.92-1.37l2.29-.89-.07-.5c0-.11,0-.21,0-.3s0-.19-.08-.29a1.67,1.67,0,0,0-.84-1,2.07,2.07,0,0,0-1.55,0,2.53,2.53,0,0,0-1.3.86,2.49,2.49,0,0,0-.42,1.43l-4.91,1.19a6,6,0,0,1,1.26-4.42,9.31,9.31,0,0,1,4.66-3,7.62,7.62,0,0,1,5.16-.22,5,5,0,0,1,2.88,3.32c.1.3.19.62.27,1a7.46,7.46,0,0,1,.17,1.07l1.07,9.61-5,1.64L80.67,128a7.83,7.83,0,0,1-1.59,2.3,6.15,6.15,0,0,1-2.42,1.41A5,5,0,0,1,73,131.63Zm5.37-8.23a6.51,6.51,0,0,0-2.5,1.49,1.59,1.59,0,0,0-.34,1.63,1.31,1.31,0,0,0,.67.82,1.76,1.76,0,0,0,1.31,0,3.64,3.64,0,0,0,1.82-1.3,3.81,3.81,0,0,0,.57-1.06,3.39,3.39,0,0,0,.15-1.46l-.07-.71Z" fill="#221f20"/><path d="M104.3,120.23a18.43,18.43,0,0,1,.06,3.76,8.17,8.17,0,0,1-.87,3,6.62,6.62,0,0,1-2,2.26,11.39,11.39,0,0,1-3.24,1.61,12.33,12.33,0,0,1-3.37.66,6.8,6.8,0,0,1-2.68-.38,5.18,5.18,0,0,1-2-1.3,5.43,5.43,0,0,1-1.2-2.07L94.33,126a2,2,0,0,0,1,1,2.65,2.65,0,0,0,1.74-.13,2.72,2.72,0,0,0,1.2-.73,3,3,0,0,0,.62-1.1,4.66,4.66,0,0,0,.17-1.38c0-.5,0-1-.11-1.62L98.83,121a5.94,5.94,0,0,1-3.69,3.38,5.23,5.23,0,0,1-4.4-.3A6.92,6.92,0,0,1,87.79,120a11.88,11.88,0,0,1-.62-3.82,10.38,10.38,0,0,1,.61-3.51,8.46,8.46,0,0,1,1.72-2.82,6.37,6.37,0,0,1,2.7-1.74,5.89,5.89,0,0,1,3-.27,5.06,5.06,0,0,1,2.5,1.29l-.27-2.2,5.23-1.72Zm-6.13-5.93a3.59,3.59,0,0,0-.12-.47,3.79,3.79,0,0,0-.45-.9,2.35,2.35,0,0,0-.69-.68,2.22,2.22,0,0,0-.92-.34,2.49,2.49,0,0,0-1.15.13,2.4,2.4,0,0,0-1.3.93A3.71,3.71,0,0,0,93,114.4a5.22,5.22,0,0,0,0,1.63,6.77,6.77,0,0,0,.31,1.48,2.41,2.41,0,0,0,1.25,1.64,2.8,2.8,0,0,0,2-.05A2.83,2.83,0,0,0,98,117.52a4.76,4.76,0,0,0,.3-2.18l0-.55A3.65,3.65,0,0,0,98.17,114.3Z" fill="#221f20"/><path d="M116.26,105.54a7,7,0,0,0-.94.25,4.17,4.17,0,0,0-2.56,2,5.38,5.38,0,0,0-.47,3.18l.91,8.18-5.4,1.79-1.87-16.77,5.25-1.74.23,2.08a6.12,6.12,0,0,1,3.82-3.75,5.87,5.87,0,0,1,.89-.23,6.31,6.31,0,0,1,.76-.08l.18,5Z" fill="#221f20"/><path d="M126.42,114.73l-5.4,1.79-1.87-16.77,5.4-1.78Zm-2.11-18.6-5.47,1.8-.45-4.18,5.46-1.81Z" fill="#221f20"/><path d="M136.93,98.74a1.46,1.46,0,0,0-1.42-.16,2.36,2.36,0,0,0-1.22.9,3.84,3.84,0,0,0-.61,1.51,6.4,6.4,0,0,0-.06,1.87,9.28,9.28,0,0,0,.43,2,4.14,4.14,0,0,0,1.16,2A1.8,1.8,0,0,0,137,107a2.19,2.19,0,0,0,1.35-1.06,3.56,3.56,0,0,0,.28-1.9l5.2-1.72a8.05,8.05,0,0,1-1,5.61,8.6,8.6,0,0,1-4.81,3.55,7.44,7.44,0,0,1-5.74-.11,7.33,7.33,0,0,1-3.61-4.65,11.23,11.23,0,0,1-.61-4,9.62,9.62,0,0,1,.84-3.66A8.84,8.84,0,0,1,131,96.09a9.55,9.55,0,0,1,3.42-1.93,7,7,0,0,1,5.17,0,6.12,6.12,0,0,1,3.22,3.62l-4.94,2.36A3.35,3.35,0,0,0,136.93,98.74Z" fill="#221f20"/><path d="M151.32,99.41a3.86,3.86,0,0,0,.06.49,3,3,0,0,0,.13.47,1.94,1.94,0,0,0,.64.95,1.27,1.27,0,0,0,1.22.09,2.66,2.66,0,0,0,1-.55,4.21,4.21,0,0,0,.62-.7,3.34,3.34,0,0,0,.49-2.22l-1.11-9.83,5.41-1.79,1.87,16.77-5.25,1.74-.23-2a6.19,6.19,0,0,1-3.88,3.87,5,5,0,0,1-2,.28,3.77,3.77,0,0,1-1.66-.52,4.32,4.32,0,0,1-1.29-1.2,6.17,6.17,0,0,1-.88-1.76,9,9,0,0,1-.4-1.79l-1.18-10.47,5.41-1.79Z" fill="#221f20"/><path d="M162.35,79.2l5.4-1.79,2.54,22.8-5.4,1.79Z" fill="#221f20"/><path d="M179.49,90.48a3.5,3.5,0,0,0,.06.48,2.34,2.34,0,0,0,.1.4,1.29,1.29,0,0,0,.61.8,1.54,1.54,0,0,0,1.17,0,5.48,5.48,0,0,0,.77-.32c.25-.13.49-.26.71-.4l1.88,3.68a10.5,10.5,0,0,1-1.67,1,15.49,15.49,0,0,1-2.05.85,6.52,6.52,0,0,1-4.13.24,4,4,0,0,1-2.4-2.75,9,9,0,0,1-.4-1.92l-.69-6.07-2.5.83-.5-4.5L173,82l-.5-4.41,5.4-1.79.5,4.41,3.4-1.13.5,4.51-3.4,1.12Z" fill="#221f20"/><path d="M189.94,86.43a4.15,4.15,0,0,0,1.38,2.24,2.32,2.32,0,0,0,2.08.12,2.74,2.74,0,0,0,1.34-.86,2.33,2.33,0,0,0,.42-1.54l5.07-1.68A6.88,6.88,0,0,1,199,89.64a9.08,9.08,0,0,1-4.67,3.15,7.84,7.84,0,0,1-5.91,0,7.35,7.35,0,0,1-3.63-4.66,11.75,11.75,0,0,1-.61-4,9.7,9.7,0,0,1,.77-3.63,8.38,8.38,0,0,1,2.12-3,9.36,9.36,0,0,1,3.43-2,8,8,0,0,1,3.12-.45,5.87,5.87,0,0,1,4.47,2.44,8.67,8.67,0,0,1,1.26,2.46,11.11,11.11,0,0,1,.46,2l.15,1.08Zm0-5.71a4.09,4.09,0,0,0-.5,2.46l4.95-1.64a3.19,3.19,0,0,0-.16-.77,1.93,1.93,0,0,0-1-1.25,2.25,2.25,0,0,0-1.68,0A3,3,0,0,0,189.93,80.72Z" fill="#221f20"/><path d="M208.14,80.6a3.65,3.65,0,0,0,.06.49,2.85,2.85,0,0,0,.13.48,1.91,1.91,0,0,0,.64.94,1.27,1.27,0,0,0,1.22.09,2.52,2.52,0,0,0,1-.55,3.5,3.5,0,0,0,.62-.7,3.33,3.33,0,0,0,.49-2.21l-1.1-9.84,5.4-1.78,1.87,16.76L213.18,86,213,84a6.16,6.16,0,0,1-3.88,3.87,5.2,5.2,0,0,1-2,.29,3.78,3.78,0,0,1-1.67-.53,4.69,4.69,0,0,1-1.29-1.19,6.44,6.44,0,0,1-.88-1.76,10,10,0,0,1-.39-1.79l-1.18-10.48,5.4-1.78Z" fill="#221f20"/><path d="M230.18,67.84a7.14,7.14,0,0,0-1,.25,4.13,4.13,0,0,0-2.56,2,5.46,5.46,0,0,0-.47,3.18l.92,8.18-5.41,1.78-1.87-16.76,5.25-1.74.23,2.08a6.17,6.17,0,0,1,4.71-4c.25,0,.51-.07.76-.09l.18,5A7.35,7.35,0,0,0,230.18,67.84Z" fill="#221f20"/><path d="M88.1,146a1.46,1.46,0,0,0-1.41-.16,2.36,2.36,0,0,0-1.22.9,3.91,3.91,0,0,0-.61,1.51,6.47,6.47,0,0,0-.06,1.88,9.32,9.32,0,0,0,.43,2,4,4,0,0,0,1.16,2,1.77,1.77,0,0,0,1.77.19,2.18,2.18,0,0,0,1.35-1.06,3.56,3.56,0,0,0,.28-1.9l5.2-1.71a8.05,8.05,0,0,1-1,5.61,8.58,8.58,0,0,1-4.81,3.54,7.48,7.48,0,0,1-5.74-.1A7.33,7.33,0,0,1,79.79,154a11.32,11.32,0,0,1-.61-4,9.62,9.62,0,0,1,.84-3.66,8.71,8.71,0,0,1,2.19-2.94,9.86,9.86,0,0,1,3.42-1.93,7,7,0,0,1,5.17,0A6.15,6.15,0,0,1,94,145.09l-4.94,2.37A3.31,3.31,0,0,0,88.1,146Z" fill="#221f20"/><path d="M103.41,153.51a7.07,7.07,0,0,1-2.69-.62,6.33,6.33,0,0,1-2.17-1.68,7.82,7.82,0,0,1-1.48-2.72,11.87,11.87,0,0,1-.65-4.14,9.69,9.69,0,0,1,.85-3.7,9,9,0,0,1,2.24-3,10,10,0,0,1,3.55-2,8.51,8.51,0,0,1,3-.47,6.8,6.8,0,0,1,2.68.62,6.27,6.27,0,0,1,2.18,1.68,8,8,0,0,1,1.48,2.72,11.83,11.83,0,0,1,.65,4.14,9.74,9.74,0,0,1-.85,3.71,8.56,8.56,0,0,1-2.24,3,10.18,10.18,0,0,1-3.55,2A8.74,8.74,0,0,1,103.41,153.51Zm-.58-12.46a4,4,0,0,0-.68,1.58,6.74,6.74,0,0,0-.1,2,9.77,9.77,0,0,0,.45,2.09,3.25,3.25,0,0,0,1.11,1.7,1.79,1.79,0,0,0,1.74.2,2.58,2.58,0,0,0,1.3-.92,3.94,3.94,0,0,0,.69-1.57,6.37,6.37,0,0,0,.09-2A9.6,9.6,0,0,0,107,142a3.41,3.41,0,0,0-1.11-1.71,1.84,1.84,0,0,0-1.74-.2A2.61,2.61,0,0,0,102.83,141.05Z" fill="#221f20"/><path d="M125.06,136c0-.17,0-.33-.07-.49a4.05,4.05,0,0,0-.12-.47,1.77,1.77,0,0,0-.68-1,1.4,1.4,0,0,0-1.25-.05,2.72,2.72,0,0,0-1,.55,5.27,5.27,0,0,0-.66.72,3,3,0,0,0-.44,1,3.63,3.63,0,0,0-.08,1.21l1.1,9.84-5.4,1.79-1.87-16.77,5.25-1.74.22,2a6.33,6.33,0,0,1,4-3.9,5.1,5.1,0,0,1,2.06-.28,3.89,3.89,0,0,1,1.69.51,4.3,4.3,0,0,1,1.28,1.17,6.31,6.31,0,0,1,.89,1.78,9.59,9.59,0,0,1,.39,1.79l1.18,10.47-5.4,1.79Z" fill="#221f20"/><path d="M143.26,130a3.8,3.8,0,0,0-.06-.5,3,3,0,0,0-.13-.47,1.71,1.71,0,0,0-.68-1,1.38,1.38,0,0,0-1.24-.06,2.7,2.7,0,0,0-1,.56,4.71,4.71,0,0,0-.66.71,3.37,3.37,0,0,0-.44,1,3.69,3.69,0,0,0-.08,1.22l1.11,9.83-5.41,1.79-1.87-16.76,5.25-1.74.23,2a6.32,6.32,0,0,1,4-3.9,5.14,5.14,0,0,1,2.06-.29,4.08,4.08,0,0,1,1.7.52,4.37,4.37,0,0,1,1.27,1.16,6.18,6.18,0,0,1,.89,1.78,8.49,8.49,0,0,1,.39,1.79l1.19,10.47-5.41,1.79Z" fill="#221f20"/><path d="M157,128.45a4.21,4.21,0,0,0,1.39,2.24,2.31,2.31,0,0,0,2.08.12,2.79,2.79,0,0,0,1.34-.86,2.33,2.33,0,0,0,.41-1.54l5.07-1.68a6.79,6.79,0,0,1-1.23,4.93,9,9,0,0,1-4.67,3.15,7.81,7.81,0,0,1-5.9,0,7.35,7.35,0,0,1-3.63-4.66,11.51,11.51,0,0,1-.61-4,9.69,9.69,0,0,1,.76-3.63,8.51,8.51,0,0,1,2.12-3,9.52,9.52,0,0,1,3.43-2,8,8,0,0,1,3.13-.45,5.91,5.91,0,0,1,4.47,2.44,8.67,8.67,0,0,1,1.26,2.46,11.1,11.1,0,0,1,.45,2l.16,1.08Zm0-5.72a4.21,4.21,0,0,0-.51,2.47l5-1.64a3.75,3.75,0,0,0-.16-.77,2,2,0,0,0-1-1.25,2.23,2.23,0,0,0-1.67,0A3,3,0,0,0,157,122.73Z" fill="#221f20"/><path d="M178.05,116.25a1.46,1.46,0,0,0-1.41-.16,2.32,2.32,0,0,0-1.22.9,3.76,3.76,0,0,0-.61,1.51,6.47,6.47,0,0,0-.06,1.88,9.32,9.32,0,0,0,.43,2,4,4,0,0,0,1.16,1.95,1.76,1.76,0,0,0,1.76.19,2.18,2.18,0,0,0,1.36-1.06,3.54,3.54,0,0,0,.28-1.89l5.19-1.72a8,8,0,0,1-1,5.61,8.52,8.52,0,0,1-4.8,3.54,7.51,7.51,0,0,1-5.75-.1,7.39,7.39,0,0,1-3.61-4.65,11.5,11.5,0,0,1-.6-4,9.62,9.62,0,0,1,.84-3.66,8.81,8.81,0,0,1,2.19-2.94,9.68,9.68,0,0,1,3.42-1.93,7,7,0,0,1,5.17,0,6.18,6.18,0,0,1,3.22,3.62L179,117.69A3.22,3.22,0,0,0,178.05,116.25Z" fill="#221f20"/><path d="M193.79,116.87a3.14,3.14,0,0,0,.06.48,2.12,2.12,0,0,0,.1.4,1.28,1.28,0,0,0,.61.81,1.56,1.56,0,0,0,1.16,0,5.69,5.69,0,0,0,.77-.32c.26-.13.5-.27.72-.4l1.88,3.68a10.23,10.23,0,0,1-1.67,1,15.08,15.08,0,0,1-2.06.85,6.49,6.49,0,0,1-4.12.24,4,4,0,0,1-2.4-2.75,9,9,0,0,1-.4-1.92l-.69-6.07-2.5.83-.5-4.5,2.5-.83-.49-4.41,5.4-1.78.5,4.4,3.4-1.12.5,4.5-3.41,1.13Z" fill="#221f20"/><path d="M204.23,112.82a4.21,4.21,0,0,0,1.39,2.24,2.31,2.31,0,0,0,2.08.12,2.73,2.73,0,0,0,1.34-.85,2.36,2.36,0,0,0,.41-1.55l5.08-1.68a6.83,6.83,0,0,1-1.24,4.93,9.05,9.05,0,0,1-4.66,3.15,7.79,7.79,0,0,1-5.91,0,7.32,7.32,0,0,1-3.63-4.66,11.66,11.66,0,0,1-.61-3.95,9.71,9.71,0,0,1,.77-3.64,8.47,8.47,0,0,1,2.12-3,9.24,9.24,0,0,1,3.42-1.94,8,8,0,0,1,3.13-.46,6.06,6.06,0,0,1,2.55.73,6.15,6.15,0,0,1,1.92,1.72,8.41,8.41,0,0,1,1.26,2.46,10.91,10.91,0,0,1,.46,2l.15,1.07Zm0-5.71a4.2,4.2,0,0,0-.51,2.47l5-1.64a3.71,3.71,0,0,0-.16-.78,2,2,0,0,0-1-1.25,2.3,2.3,0,0,0-1.68,0A3,3,0,0,0,204.23,107.11Zm.25-12,6.18-2L206.47,100l-5.1,1.69Z" fill="#221f20"/><path d="M229.29,106.08l.63,5.52-5,1.66-.66-5.51Zm-1.58-17.39,1.18,15.67L224.08,106l-2.25-15.31Z" fill="#221f20"/></g></g></svg>