<svg id="maquettes-blog" xmlns="http://www.w3.org/2000/svg" viewBox="0 0 299.44 218.33"><defs><style>.cls-1{fill:#fee767;stroke:#1d1d1b;stroke-miterlimit:10;stroke-width:3px;}.cls-2{fill:#1d1d1b;}</style></defs><title>connected-farmer</title><polygon class="cls-1" points="53.73 113.05 60.11 70.88 111.98 79.9 114.9 44.23 163.26 66.08 159.5 20.02 202.83 48.05 234.69 3.45 250.27 61.03 294.58 63.34 252.71 89.32 283.78 141.19 232.04 122.91 229.35 193.31 175 151.13 163.29 215.47 114.67 173.07 88.13 212.45 67.44 175.23 29.51 190.78 46.08 150 4.03 109.22 53.73 113.05"/><path class="cls-2" d="M82.34,122.56a.94.94,0,0,0-1-.11,1.51,1.51,0,0,0-.9.81,3.62,3.62,0,0,0-.32,1.35,6.25,6.25,0,0,0,.13,1.53,8.93,8.93,0,0,0,.38,1.41,2.79,2.79,0,0,0,.84,1.36,1.15,1.15,0,0,0,1.12.1,1.29,1.29,0,0,0,.86-.79,3.94,3.94,0,0,0,.16-1.43l5.64-2a8.12,8.12,0,0,1-.85,5.65A8.32,8.32,0,0,1,83.78,134a8.73,8.73,0,0,1-2.91.57,6.19,6.19,0,0,1-2.59-.48,6,6,0,0,1-2.12-1.6,8.7,8.7,0,0,1-1.54-2.77A11,11,0,0,1,74,126a9.54,9.54,0,0,1,.68-3.55,8.57,8.57,0,0,1,2-3,9,9,0,0,1,3.27-2,7.14,7.14,0,0,1,5.13-.15,5.67,5.67,0,0,1,3.27,3.46L83,123.53A2.59,2.59,0,0,0,82.34,122.56Z"/><path class="cls-2" d="M99.39,110.94a6.47,6.47,0,0,1,2.64.45,6.1,6.1,0,0,1,2.22,1.58,8.25,8.25,0,0,1,1.62,2.79,10.42,10.42,0,0,1,.63,3.71,9.27,9.27,0,0,1-.73,3.55,8.75,8.75,0,0,1-2.09,3,9.87,9.87,0,0,1-6.2,2.61,6.31,6.31,0,0,1-2.64-.46,6,6,0,0,1-2.21-1.57,8.49,8.49,0,0,1-1.6-2.81,10.62,10.62,0,0,1-.64-3.71,9.56,9.56,0,0,1,.72-3.54,8.78,8.78,0,0,1,2.08-3,9.47,9.47,0,0,1,3.36-2A9.35,9.35,0,0,1,99.39,110.94Zm.16,6.29a1.74,1.74,0,0,0-.39-.53,1.44,1.44,0,0,0-.54-.3,1.29,1.29,0,0,0-.73.07,1.65,1.65,0,0,0-1,.88,3.62,3.62,0,0,0-.33,1.43,7.06,7.06,0,0,0,.12,1.58,11.7,11.7,0,0,0,.36,1.35c.08.21.17.41.27.62a2,2,0,0,0,.4.53,1.44,1.44,0,0,0,.54.3,1.25,1.25,0,0,0,.72-.07,1.67,1.67,0,0,0,1-.88,3.62,3.62,0,0,0,.33-1.43,7,7,0,0,0-.12-1.58,10.69,10.69,0,0,0-.36-1.35A4.91,4.91,0,0,0,99.55,117.23Z"/><path class="cls-2" d="M113.55,107.63a7.16,7.16,0,0,1,1.4-2.18,5.55,5.55,0,0,1,2.11-1.35,5,5,0,0,1,1.93-.32,3.81,3.81,0,0,1,1.65.43,4.15,4.15,0,0,1,1.32,1.13,6.14,6.14,0,0,1,.91,1.68,9,9,0,0,1,.4,1.64l1.42,10-6,2.18-1.3-9.45-.06-.3-.09-.28a1.28,1.28,0,0,0-.51-.71.94.94,0,0,0-.84,0,2.25,2.25,0,0,0-1.13.92,2,2,0,0,0-.27.7,3.61,3.61,0,0,0,0,1l1.28,9.2-6,2.18-2.22-16,5.87-2.12Z"/><path class="cls-2" d="M131.22,101.26a6.87,6.87,0,0,1,1.4-2.18,5.47,5.47,0,0,1,2.11-1.35,5.25,5.25,0,0,1,1.92-.33,4,4,0,0,1,1.66.44A4.1,4.1,0,0,1,139.62,99a6,6,0,0,1,.91,1.68,8.31,8.31,0,0,1,.4,1.65l1.43,10-6,2.18L135,105.06a1.59,1.59,0,0,0-.06-.3c0-.1,0-.19-.08-.29a1.35,1.35,0,0,0-.51-.7.94.94,0,0,0-.84,0,2.15,2.15,0,0,0-1.41,1.62,4,4,0,0,0,0,1l1.28,9.21-6,2.17-2.21-16L131,99.59Z"/><path class="cls-2" d="M149.68,103.12a2.3,2.3,0,0,0,1.12,1.49,2,2,0,0,0,1.43,0,1.69,1.69,0,0,0,1.19-1.8l5.54-2a7,7,0,0,1-.09,2.6,6.68,6.68,0,0,1-1,2.3,8.21,8.21,0,0,1-1.88,1.89,11.07,11.07,0,0,1-2.68,1.38,7.59,7.59,0,0,1-5.75.1,6.91,6.91,0,0,1-3.6-4.29,10.88,10.88,0,0,1-.66-3.71,9.35,9.35,0,0,1,.68-3.55,8.76,8.76,0,0,1,5.33-5,8.34,8.34,0,0,1,2.77-.54,6,6,0,0,1,2.47.47,5.73,5.73,0,0,1,2,1.48A7.52,7.52,0,0,1,158,96.41c.13.34.24.7.35,1.09a7.75,7.75,0,0,1,.23,1.22l.12.76-9.15,3.3Zm-.28-5.53a3.27,3.27,0,0,0-.3,2l3.53-1.27a2.4,2.4,0,0,0-.14-.65,1.51,1.51,0,0,0-.8-1,1.55,1.55,0,0,0-1.2,0A2,2,0,0,0,149.4,97.59Z"/><path class="cls-2" d="M168.7,91.41a1,1,0,0,0-1-.11,1.55,1.55,0,0,0-.9.82,3.52,3.52,0,0,0-.31,1.34,6.67,6.67,0,0,0,.12,1.53A10.16,10.16,0,0,0,167,96.4a2.94,2.94,0,0,0,.84,1.36,1.16,1.16,0,0,0,1.12.1,1.29,1.29,0,0,0,.87-.79,4.17,4.17,0,0,0,.15-1.42l5.65-2a8.16,8.16,0,0,1-.85,5.65,8.34,8.34,0,0,1-4.61,3.62,9.12,9.12,0,0,1-2.92.58,6.28,6.28,0,0,1-2.58-.49,5.79,5.79,0,0,1-2.13-1.6A8.79,8.79,0,0,1,161,98.6a10.67,10.67,0,0,1-.66-3.75,9.3,9.3,0,0,1,.68-3.54,8.58,8.58,0,0,1,2-3,9.15,9.15,0,0,1,3.27-2,7.13,7.13,0,0,1,5.13-.14,5.62,5.62,0,0,1,3.27,3.46l-5.33,2.72A2.51,2.51,0,0,0,168.7,91.41Z"/><path class="cls-2" d="M185,89.86a4.75,4.75,0,0,0,.18.76,1.09,1.09,0,0,0,.59.71,1.41,1.41,0,0,0,1-.06,3.87,3.87,0,0,0,.62-.29,6.76,6.76,0,0,0,.61-.38l2.14,4.08a10.41,10.41,0,0,1-1.63,1.08,14.69,14.69,0,0,1-2.24,1,6.43,6.43,0,0,1-4.34.34,4.07,4.07,0,0,1-2.43-2.68,8.49,8.49,0,0,1-.44-1.82l-.67-4.79L176,88.7l-.68-5.08,2.42-.88-.57-4.16,6-2.18.57,4.16,3.08-1.11.68,5.08-3.07,1.11Z"/><path class="cls-2" d="M195.82,86.47a2.3,2.3,0,0,0,1.12,1.5,2,2,0,0,0,1.43,0,1.69,1.69,0,0,0,1.19-1.81l5.54-2a7.05,7.05,0,0,1-.09,2.6A6.55,6.55,0,0,1,204,89a8.06,8.06,0,0,1-1.88,1.9,11.07,11.07,0,0,1-2.68,1.38,7.54,7.54,0,0,1-5.75.09,6.89,6.89,0,0,1-3.6-4.28,10.89,10.89,0,0,1-.66-3.72,9.3,9.3,0,0,1,.68-3.54,8.76,8.76,0,0,1,5.33-5,8.34,8.34,0,0,1,2.77-.54,6.11,6.11,0,0,1,2.47.46,5.89,5.89,0,0,1,2,1.49,7.33,7.33,0,0,1,1.45,2.52c.13.34.24.7.35,1.09a7.54,7.54,0,0,1,.23,1.22l.12.76-9.15,3.29ZM195.54,81a3.25,3.25,0,0,0-.3,2l3.53-1.27a2.48,2.48,0,0,0-.14-.66,1.43,1.43,0,0,0-2-1A2,2,0,0,0,195.54,81Z"/><path class="cls-2" d="M213.5,69.83a4,4,0,0,1,1.95.86l-1-7.14,6-2.18,3,21.68-5.82,2.1-.26-1.79a6.17,6.17,0,0,1-1.15,2.11,5.38,5.38,0,0,1-4.16,1.82,3.88,3.88,0,0,1-1.79-.54,5.46,5.46,0,0,1-1.59-1.48,10.09,10.09,0,0,1-1.3-2.55,13.92,13.92,0,0,1-.82-3.94A12.47,12.47,0,0,1,207,75,8,8,0,0,1,208.49,72a6,6,0,0,1,2.66-1.88A4.58,4.58,0,0,1,213.5,69.83Zm2.92,9.91a5.1,5.1,0,0,0,.09-2.07l-.13-.78a5.55,5.55,0,0,0-.3-1.2,2.45,2.45,0,0,0-.75-1.15,1.14,1.14,0,0,0-1.14-.11,1.61,1.61,0,0,0-1,.89,4.12,4.12,0,0,0-.35,1.43,6.78,6.78,0,0,0,.09,1.56,7.67,7.67,0,0,0,.33,1.32,5.5,5.5,0,0,0,.3.69,2.06,2.06,0,0,0,.38.55,1,1,0,0,0,.54.28,1.23,1.23,0,0,0,.73-.09A1.76,1.76,0,0,0,216.42,79.74Z"/><path class="cls-2" d="M94.37,145.61l.69,5.08L92,151.8l1.41,10.08-6,2.18L85.94,154l-2.42.88-.69-5.08,2.43-.88-.07-.55a10.21,10.21,0,0,1,0-2.7,6.56,6.56,0,0,1,.71-2.31,5.89,5.89,0,0,1,1.54-1.86,8.2,8.2,0,0,1,2.49-1.36,10.59,10.59,0,0,1,2.48-.6,12.81,12.81,0,0,1,2-.06L94.26,144a4.54,4.54,0,0,0-.79.06,4.82,4.82,0,0,0-.89.22,1.94,1.94,0,0,0-1.13.86,2.18,2.18,0,0,0-.22,1.35l0,.27Z"/><path class="cls-2" d="M106.67,155.47a6.87,6.87,0,0,1-1.36,2,5.5,5.5,0,0,1-2.1,1.29,5,5,0,0,1-3.69.07,4.34,4.34,0,0,1-2.33-2.69,4.62,4.62,0,0,1-.21-2.81,5.53,5.53,0,0,1,1.27-2.27,9.61,9.61,0,0,1,2.26-1.81,23,23,0,0,1,2.82-1.38l1.92-.79,0-.27c0-.2-.06-.35-.08-.45a1.61,1.61,0,0,0-.09-.29,1.07,1.07,0,0,0-.63-.73,1.48,1.48,0,0,0-1,.07,1.62,1.62,0,0,0-.9.68,2,2,0,0,0-.23,1.13l-5.45,1.52a5.66,5.66,0,0,1,.12-2.4,5.89,5.89,0,0,1,1.1-2.1,8.34,8.34,0,0,1,1.92-1.75,11.92,11.92,0,0,1,2.65-1.32,7.28,7.28,0,0,1,5.11-.32,5,5,0,0,1,2.91,3.2,10,10,0,0,1,.5,2.18l1.16,8.79-5.45,2Zm-2.12-4.37a4.47,4.47,0,0,0-1.89,1.19,1.28,1.28,0,0,0-.23,1.26c.24.66.76.84,1.55.56a2.74,2.74,0,0,0,.77-.42,2.71,2.71,0,0,0,1-1.42,2.81,2.81,0,0,0,.07-1.11l-.07-.55Z"/><path class="cls-2" d="M123.69,139.5a6.91,6.91,0,0,0-.88.26,4.68,4.68,0,0,0-2.26,1.59,3.88,3.88,0,0,0-.53,2.86l1,7.69-6,2.18-2.21-16,5.87-2.12.23,1.8a6.5,6.5,0,0,1,1.43-2.13,6.14,6.14,0,0,1,2.21-1.39,6,6,0,0,1,1.57-.34l.36,5.51Z"/><path class="cls-2" d="M137.45,129.31a3.93,3.93,0,0,1,1.84,1.12A7.49,7.49,0,0,1,141,128a6.79,6.79,0,0,1,2.36-1.48,4.16,4.16,0,0,1,3.47.09,4.78,4.78,0,0,1,2.18,2.75,5.8,5.8,0,0,1,.24.84c.07.3.12.6.18.93l1.42,10-6,2.18-1.4-9.8c0-.1,0-.19,0-.25s0-.16-.07-.25a1,1,0,0,0-.41-.54.7.7,0,0,0-.62,0,1.84,1.84,0,0,0-.91.74,1.58,1.58,0,0,0-.25.57,2,2,0,0,0,0,.7l1.36,9.68-6,2.18-1.4-9.8c0-.1,0-.18,0-.25l-.07-.25a1,1,0,0,0-.41-.54.74.74,0,0,0-.62,0,2,2,0,0,0-.92.74,1.92,1.92,0,0,0-.24,1.27l1.36,9.69-6,2.17-2.22-16,5.87-2.11.22,1.58a6.32,6.32,0,0,1,1.26-2.05,4.81,4.81,0,0,1,1.94-1.28A3.8,3.8,0,0,1,137.45,129.31Z"/><path class="cls-2" d="M158.2,131.94a2.33,2.33,0,0,0,1.11,1.49,2,2,0,0,0,1.43,0,1.68,1.68,0,0,0,1.2-1.8l5.53-2a6.6,6.6,0,0,1-1.11,4.9,7.49,7.49,0,0,1-1.88,1.89,11.07,11.07,0,0,1-2.68,1.38,7.54,7.54,0,0,1-5.75.1,7,7,0,0,1-3.6-4.28,11,11,0,0,1-.66-3.72,9.55,9.55,0,0,1,.69-3.55,8.76,8.76,0,0,1,5.33-5,8.29,8.29,0,0,1,2.77-.54,6,6,0,0,1,2.46.47,5.89,5.89,0,0,1,2,1.48,7.69,7.69,0,0,1,1.45,2.52c.12.34.23.7.34,1.09a7.75,7.75,0,0,1,.24,1.22l.11.76-9.14,3.3Zm-.29-5.53a3.28,3.28,0,0,0-.29,2l3.53-1.27a3.51,3.51,0,0,0-.14-.65,1.6,1.6,0,0,0-.8-1,1.58,1.58,0,0,0-1.21,0A2.12,2.12,0,0,0,157.91,126.41Z"/><path class="cls-2" d="M179.12,119.51a6.46,6.46,0,0,0-.88.26,4.71,4.71,0,0,0-2.27,1.59,3.93,3.93,0,0,0-.53,2.86l1.05,7.69-6,2.17-2.21-16,5.87-2.12.23,1.8a6.37,6.37,0,0,1,1.44-2.13,6,6,0,0,1,2.21-1.39,5.91,5.91,0,0,1,1.56-.34l.37,5.51C179.65,119.41,179.39,119.46,179.12,119.51Z"/><path class="cls-2" d="M194.76,119.42l.78,5.62-5.47,2-.78-5.62ZM193,103.17l1.36,14.91L189.16,120l-2.75-14.41Z"/></svg>