<svg id="maquettes-blog" xmlns="http://www.w3.org/2000/svg" viewBox="0 0 1185.91 255.74"><defs><style>.cls-1{fill:#b1aca6;}.cls-1,.cls-3,.cls-4,.cls-5{stroke:#1d1d1b;}.cls-1,.cls-2,.cls-3,.cls-4,.cls-5{stroke-miterlimit:10;stroke-width:3px;}.cls-2{fill:#d3ca68;stroke:#000;}.cls-3{fill:#fac48c;}.cls-4{fill:#f18410;}.cls-5,.cls-6{fill:#1d1d1b;}</style></defs><title>john&amp;apos;s blog</title><rect class="cls-1" x="1.5" y="44.98" width="1182.91" height="170.13" rx="85.06" ry="85.06"/><rect class="cls-2" x="19.51" y="62.39" width="1139.57" height="135.85" rx="67.93" ry="67.93"/><circle class="cls-1" cx="211.97" cy="127.79" r="126.29"/><circle class="cls-2" cx="211.97" cy="127.79" r="113.8"/><path class="cls-3" d="M149.81,75c-6-9.87-10-16-11.58-3.73s10.11,43.17,10.11,43.17"/><circle class="cls-3" cx="208.92" cy="128.85" r="84.61"/><path class="cls-4" d="M132.73,87.05c27.3,25.06,66.85-2.14,66.85-2.14,0,27.2,48.79,76,93.94,68,0,0,17.61-88.94-70.35-108.62C174.28,33.3,132.73,87.05,132.73,87.05Z"/><path class="cls-3" d="M273.48,156.7c5.59-4.16,23.29-13.25,26.34-5.84s5.18,21.13-5.5,30.66c-4.56,4.07-15.25,2.33-16.77-3.92"/><path class="cls-3" d="M295.85,172s2.54-6.23,0-15.29-10.17,1.94-17.79,6.75c0,0,12.2,0,3.56,8.54"/><path class="cls-4" d="M209.59,84.31c30,51.55,46.35,53.55,85.12,46.75"/><path class="cls-4" d="M196.8,76.72c-12.71,9.29-47.11,17.76-54.34-1"/><path class="cls-3" d="M150.05,180.76c4.19,5.85,10.62,16.64,24.19,12.44"/><line class="cls-1" x1="241.16" y1="196.6" x2="241.16" y2="203.39"/><line class="cls-1" x1="245.95" y1="187.06" x2="248.35" y2="191.53"/><line class="cls-1" x1="255.15" y1="183.41" x2="257.94" y2="191.53"/><line class="cls-1" x1="256.54" y1="173.08" x2="262.34" y2="180.36"/><line class="cls-1" x1="256.54" y1="164.38" x2="259.44" y2="168.23"/><line class="cls-1" x1="259.44" y1="158.33" x2="265.24" y2="161.07"/><line class="cls-1" x1="253.15" y1="153.92" x2="255.15" y2="158.33"/><line class="cls-1" x1="265.24" y1="173.08" x2="268.33" y2="178.62"/><line class="cls-1" x1="248.35" y1="200" x2="253.15" y2="206.59"/><line class="cls-1" x1="255.15" y1="196.6" x2="259.44" y2="200"/><line class="cls-1" x1="234.77" y1="206.59" x2="237.16" y2="213.46"/><line class="cls-1" x1="207.19" y1="209.79" x2="207.99" y2="218.18"/><line class="cls-1" x1="196.4" y1="208.19" x2="195.2" y2="214.98"/><line class="cls-1" x1="184.81" y1="205.39" x2="181.62" y2="211.78"/><line class="cls-1" x1="175.62" y1="201.39" x2="174.82" y2="205.39"/><line class="cls-1" x1="166.43" y1="198.6" x2="162.04" y2="203.39"/><line class="cls-1" x1="216.38" y1="210.99" x2="218.78" y2="216.98"/><line class="cls-1" x1="226.37" y1="201.39" x2="226.77" y2="206.59"/><line class="cls-1" x1="227.57" y1="213.78" x2="230.37" y2="208.19"/><path class="cls-4" d="M175.62,135c-4.79,1-8-.4-8.19-4.4s-4,7.6-7-3.39S156,135,151.85,122s-.4,7.59-5.4-2.79-4.39.59-3,3,5,5.8,6.2,4.4,2,9.39,6,3.39,2.2,15.39,8.59,8.2-2.33,12.05,11,.4C181.62,133,175.62,135,175.62,135Z"/><path class="cls-4" d="M179.47,137.09c1.38,4.7,4.12,6.86,7.74,5.15s-4.81,7.1,6.3,4.55-4.8,7.56,8.63,5.12-6.5,3.94,5,3.44,1.54,4.16-1.23,4.05-7.47-1.66-6.8-3.38-9.22,2.68-5.82-3.68-14.6,5.33-11.28-3.7-9.53,7.75-5.55-9.5C178.4,130.86,179.47,137.09,179.47,137.09Z"/><rect class="cls-5" x="163.81" y="147.15" width="5.2" height="5.2" rx="2.6" ry="2.6"/><rect class="cls-5" x="172.42" y="151.84" width="5.2" height="5.2" rx="2.6" ry="2.6"/><path class="cls-4" d="M170,165c17.77,6.21,29.79,14.83,31.62,27.05s-.78,16.3-.78,16.3c-12.23,4.89-11.82-10.18-11.82-10.18-13,3.26-11.81-10.8-12.63-10.39-9.78,4.89-12.83-7.34-12.83-7.34s-10.45,6.49-11.94-10c0,0-12.79,10-12.79-2.65,0,0-12.75,11-12.75-.8,0,0,2.11-13.76,7.61-16.51s12.73,3.32,25.92,8.92"/><path class="cls-3" d="M164,153.38c-11.53,6.86-25.2,10.46-18.93,18.74,6.82,9,19.38-2.83,31.53-8.46"/><path class="cls-4" d="M294,138.26c-14.09,3.29-25.18,7.49-42.86-.3"/><line class="cls-4" x1="148.35" y1="185.01" x2="142.66" y2="188.31"/><line class="cls-4" x1="142.66" y1="177.82" x2="136.36" y2="178.42"/><line class="cls-4" x1="153.74" y1="192.5" x2="151.35" y2="196.4"/><path class="cls-6" d="M440.75,140.83q-2.78,13.1-10.28,19.46t-19.74,6.35q-11.66,0-18.35-6.31t-6.69-17.58v-1.58a13.71,13.71,0,0,1,.1-1.67H404v2a17.37,17.37,0,0,0,.34,3.44,8.27,8.27,0,0,0,1.19,3,6.45,6.45,0,0,0,2.39,2.1,8.6,8.6,0,0,0,4,.81,8.37,8.37,0,0,0,7-3.11,20.86,20.86,0,0,0,3.59-8.84l9.08-42.24H450Z"/><path class="cls-6" d="M469.42,164.63a25.3,25.3,0,0,1-9.32-5.87,26.28,26.28,0,0,1-6-9.51,36.87,36.87,0,0,1-2.1-12.91,47.46,47.46,0,0,1,2.53-15.29A41.22,41.22,0,0,1,462,107.76,35.88,35.88,0,0,1,490.06,95a35.09,35.09,0,0,1,12.14,2,25.45,25.45,0,0,1,9.32,5.88,26.12,26.12,0,0,1,6,9.51,36.6,36.6,0,0,1,2.11,12.91,47.1,47.1,0,0,1-2.54,15.34,41,41,0,0,1-7.4,13.23,35.53,35.53,0,0,1-28.1,12.81A34.86,34.86,0,0,1,469.42,164.63Zm21.46-16.24a18.76,18.76,0,0,0,5.59-6.31,30.47,30.47,0,0,0,3.06-8.27,40.29,40.29,0,0,0,1-8.36,27,27,0,0,0-.57-5.64,12.94,12.94,0,0,0-2-4.69,10.35,10.35,0,0,0-3.59-3.2,11.34,11.34,0,0,0-5.44-1.19,13.62,13.62,0,0,0-8.22,2.48,18.87,18.87,0,0,0-5.55,6.31,30.31,30.31,0,0,0-3.06,8.32,40.51,40.51,0,0,0-.95,8.31,27,27,0,0,0,.57,5.64,13.44,13.44,0,0,0,2,4.73,9.54,9.54,0,0,0,3.59,3.2,11.59,11.59,0,0,0,5.44,1.15A13.78,13.78,0,0,0,490.88,148.39Z"/><path class="cls-6" d="M555.15,96.68l-5.25,24.75h22.17l5.26-24.75h18.35l-14.43,68.24H562.89L568.53,138H546.36l-5.64,26.95H522.37L536.8,96.68Z"/><path class="cls-6" d="M619.67,124.87l-8.51,40h-17.3l14.43-68.24H624l16.53,40.24L649,96.68h17.3l-14.43,68.24H636.3Z"/><path class="cls-6" d="M695.36,96.68l-12.14,26.95H669.94l8.89-26.95Z"/><path class="cls-6" d="M747.41,152.64a20.4,20.4,0,0,1-5.74,7.45,27,27,0,0,1-9.32,4.83,42.42,42.42,0,0,1-12.62,1.72,46.3,46.3,0,0,1-10.89-1.24,26.74,26.74,0,0,1-9.23-4.11,20.64,20.64,0,0,1-6.45-7.5,25.32,25.32,0,0,1-2.48-11.33h18.25a9.56,9.56,0,0,0,3.21,6.93q2.91,2.54,8.55,2.53c3.38,0,5.91-.63,7.6-1.91a6,6,0,0,0,2.53-5.07,5.37,5.37,0,0,0-1.53-3.87,10.62,10.62,0,0,0-5.25-2.43L716.87,137q-10.14-2.3-14.77-7.26a17.66,17.66,0,0,1-4.64-12.52,20.79,20.79,0,0,1,2-9.27,19.82,19.82,0,0,1,5.78-7,26.92,26.92,0,0,1,9.13-4.45,43.84,43.84,0,0,1,12-1.52A45.5,45.5,0,0,1,736.22,96a25.14,25.14,0,0,1,8.46,3.49,19.1,19.1,0,0,1,6.07,6.4,22.91,22.91,0,0,1,2.82,9.89l-17.87,2q-.68-4.3-3.06-6.31t-7.27-2q-4.68,0-7,1.68A5.29,5.29,0,0,0,716,115.7a5.14,5.14,0,0,0,1.48,3.72c1,1,2.75,1.82,5.3,2.39l7.55,1.72a43.8,43.8,0,0,1,8.08,2.63,21.4,21.4,0,0,1,6,3.92,14.91,14.91,0,0,1,3.73,5.55,20.31,20.31,0,0,1,1.24,7.4A23.22,23.22,0,0,1,747.41,152.64Z"/><path class="cls-6" d="M834.76,123.49a19.41,19.41,0,0,1-8.74,6.26,16,16,0,0,1,6.16,5.4,14.42,14.42,0,0,1,2.15,8.07,20.63,20.63,0,0,1-1.86,8.85,18.28,18.28,0,0,1-5.64,6.83,27.78,27.78,0,0,1-9.46,4.44,49.44,49.44,0,0,1-13.24,1.58H774.88l14.43-68.24H815A38.43,38.43,0,0,1,825.73,98a19.72,19.72,0,0,1,7.07,3.49,13.17,13.17,0,0,1,3.92,5.16,16.07,16.07,0,0,1,1.24,6.31A16.78,16.78,0,0,1,834.76,123.49Zm-29,27.67q5.36,0,8.13-2.11c1.85-1.4,2.77-3.56,2.77-6.5a5.9,5.9,0,0,0-1.86-4.68c-1.25-1.08-3.33-1.62-6.26-1.62H798l-3.25,14.91Zm5.74-28.29a17.22,17.22,0,0,0,3.44-.34,8.8,8.8,0,0,0,2.87-1.1,5.31,5.31,0,0,0,2-2.15,7.39,7.39,0,0,0,.71-3.39,4.78,4.78,0,0,0-1.81-4.06c-1.21-.93-3.13-1.39-5.74-1.39h-9.36l-2.78,12.43Z"/><path class="cls-6" d="M853.26,96.68h18.35l-11.09,52.66h30l-4.68,15.58h-47Z"/><path class="cls-6" d="M913.76,164.63a25.3,25.3,0,0,1-9.32-5.87,26.28,26.28,0,0,1-6-9.51,36.87,36.87,0,0,1-2.1-12.91,47.46,47.46,0,0,1,2.53-15.29,41.22,41.22,0,0,1,7.41-13.29A35.84,35.84,0,0,1,934.4,95a35.09,35.09,0,0,1,12.14,2,25.45,25.45,0,0,1,9.32,5.88,26.12,26.12,0,0,1,6,9.51,36.6,36.6,0,0,1,2.11,12.91,47.1,47.1,0,0,1-2.54,15.34,41,41,0,0,1-7.4,13.23,35.53,35.53,0,0,1-28.1,12.81A34.86,34.86,0,0,1,913.76,164.63Zm21.46-16.24a18.76,18.76,0,0,0,5.59-6.31,30.47,30.47,0,0,0,3.06-8.27,40.29,40.29,0,0,0,1-8.36,27,27,0,0,0-.57-5.64,12.94,12.94,0,0,0-2-4.69,10.35,10.35,0,0,0-3.59-3.2,11.34,11.34,0,0,0-5.44-1.19,13.62,13.62,0,0,0-8.22,2.48,18.87,18.87,0,0,0-5.55,6.31,30.31,30.31,0,0,0-3.06,8.32,40.51,40.51,0,0,0-.95,8.31,27,27,0,0,0,.57,5.64,13.44,13.44,0,0,0,2,4.73,9.59,9.59,0,0,0,3.58,3.2,11.66,11.66,0,0,0,5.45,1.15A13.78,13.78,0,0,0,935.22,148.39Z"/><path class="cls-6" d="M1008.38,110.44a13.8,13.8,0,0,0-7.65,2.1,17.62,17.62,0,0,0-5.4,5.59,26.94,26.94,0,0,0-3.2,7.89,38.55,38.55,0,0,0-1,9,27.12,27.12,0,0,0,.72,6.41,14,14,0,0,0,2.34,5.16A10.69,10.69,0,0,0,998.3,150a14.53,14.53,0,0,0,6.26,1.2,25.37,25.37,0,0,0,5.06-.53,12.79,12.79,0,0,0,4.49-1.77l1.82-8.12H1005l3.16-14.82H1036l-6.88,32.22a39.62,39.62,0,0,1-5.11,3.15,44.91,44.91,0,0,1-6.41,2.72,50.08,50.08,0,0,1-7.5,1.92,48.06,48.06,0,0,1-8.32.71,33.19,33.19,0,0,1-13.66-2.53,25.39,25.39,0,0,1-9.18-6.74,26.4,26.4,0,0,1-5.16-9.8,42.16,42.16,0,0,1-1.63-11.8,47.4,47.4,0,0,1,2.44-15.05,40.45,40.45,0,0,1,7.17-13,35,35,0,0,1,11.9-9.23A37,37,0,0,1,1010,95a34.23,34.23,0,0,1,11,1.62,23.44,23.44,0,0,1,8.07,4.54,20.16,20.16,0,0,1,5.12,7,25.56,25.56,0,0,1,2.1,9l-18.26,2.1Q1016.89,110.44,1008.38,110.44Z"/></svg>