<svg xmlns="http://www.w3.org/2000/svg" viewBox="0 0 1344.91 255.58"><title>Fichier 2</title><g id="Calque_2" data-name="Calque 2"><g id="maquettes-blog"><rect x="1.5" y="43.49" width="1341.91" height="170.13" rx="85.06" ry="85.06" fill="#a5a39f" stroke="#221f20" stroke-miterlimit="10" stroke-width="3"/><rect x="19.51" y="60.91" width="1298.57" height="135.85" rx="67.93" ry="67.93" fill="#c9c57a" stroke="#000" stroke-miterlimit="10" stroke-width="3"/><path d="M398.5,93.19h18.35l-11.09,52.66h30l-4.69,15.58h-47Z" fill="#221f20"/><path d="M468.08,119.19h28.77l-3.25,15.1H464.83l-2.49,12h32.5l-4.39,15.1H441l14.43-68.24h48.85l-3.16,15.1H470.37Z" fill="#221f20"/><path d="M580.91,120a19.39,19.39,0,0,1-8.75,6.26,16,16,0,0,1,6.17,5.4,14.51,14.51,0,0,1,2.15,8.08,20.44,20.44,0,0,1-1.87,8.84,18.34,18.34,0,0,1-5.63,6.83,27.94,27.94,0,0,1-9.47,4.45,49.8,49.8,0,0,1-13.23,1.57H521l14.43-68.24h25.71a38.46,38.46,0,0,1,10.71,1.29A19.72,19.72,0,0,1,579,98a13.27,13.27,0,0,1,3.92,5.16,16.1,16.1,0,0,1,1.24,6.31A16.82,16.82,0,0,1,580.91,120Zm-29,27.67q5.36,0,8.13-2.1c1.84-1.4,2.77-3.57,2.77-6.5a5.88,5.88,0,0,0-1.87-4.69q-1.86-1.62-6.26-1.62H544.16l-3.25,14.91Zm5.74-28.29a16.59,16.59,0,0,0,3.44-.34,8.74,8.74,0,0,0,2.86-1.1,5.24,5.24,0,0,0,2-2.15,7.26,7.26,0,0,0,.72-3.39,4.8,4.8,0,0,0-1.82-4.06q-1.81-1.4-5.73-1.39H549.7l-2.77,12.43Z" fill="#221f20"/><path d="M599.4,93.19h18.35l-11.08,52.66h30L632,161.43H585Z" fill="#221f20"/><path d="M659.9,161.15a25.54,25.54,0,0,1-9.32-5.88,26.12,26.12,0,0,1-6-9.51,36.84,36.84,0,0,1-2.1-12.91A47.19,47.19,0,0,1,645,117.56a41.07,41.07,0,0,1,7.41-13.28,35.89,35.89,0,0,1,28.1-12.81,34.86,34.86,0,0,1,12.14,2A25.3,25.3,0,0,1,702,99.35a26.12,26.12,0,0,1,6,9.51,36.84,36.84,0,0,1,2.1,12.91,47,47,0,0,1-2.53,15.34,41.29,41.29,0,0,1-7.41,13.24,35.45,35.45,0,0,1-28.1,12.8A34.9,34.9,0,0,1,659.9,161.15Zm21.46-16.25a18.66,18.66,0,0,0,5.59-6.31,30,30,0,0,0,3.06-8.27,39.67,39.67,0,0,0,1-8.36,26.3,26.3,0,0,0-.58-5.64,12.87,12.87,0,0,0-1.95-4.68,10.28,10.28,0,0,0-3.59-3.21,11.35,11.35,0,0,0-5.45-1.19,13.73,13.73,0,0,0-8.22,2.48,19,19,0,0,0-5.54,6.31,30.31,30.31,0,0,0-3.06,8.32,40,40,0,0,0-1,8.31,27,27,0,0,0,.58,5.64,13.18,13.18,0,0,0,2,4.73,9.7,9.7,0,0,0,3.58,3.21,11.76,11.76,0,0,0,5.45,1.14A13.75,13.75,0,0,0,681.36,144.9Z" fill="#221f20"/><path d="M754.53,107a13.72,13.72,0,0,0-7.65,2.11,17.31,17.31,0,0,0-5.4,5.59,26.77,26.77,0,0,0-3.2,7.88,38.57,38.57,0,0,0-1,9,27.58,27.58,0,0,0,.71,6.4,14.19,14.19,0,0,0,2.34,5.16,10.88,10.88,0,0,0,4.16,3.4,14.75,14.75,0,0,0,6.26,1.19,24.68,24.68,0,0,0,5.07-.53,13,13,0,0,0,4.49-1.76l1.82-8.13h-10.9l3.16-14.81h27.81l-6.88,32.21a39.77,39.77,0,0,1-5.12,3.15,45.44,45.44,0,0,1-6.4,2.73,52,52,0,0,1-7.5,1.91,47.09,47.09,0,0,1-8.32.71,33.24,33.24,0,0,1-13.67-2.53,25.15,25.15,0,0,1-9.17-6.74,26.43,26.43,0,0,1-5.16-9.79,41.91,41.91,0,0,1-1.63-11.81,47.12,47.12,0,0,1,2.44-15,40.08,40.08,0,0,1,7.17-13A35,35,0,0,1,739.81,95a36.8,36.8,0,0,1,16.34-3.49,34.17,34.17,0,0,1,11,1.62,23.55,23.55,0,0,1,8.08,4.54,20.23,20.23,0,0,1,5.11,7,25.78,25.78,0,0,1,2.11,9l-18.26,2.11Q763,106.95,754.53,107Z" fill="#221f20"/><path d="M820.09,93.19h24.28a36.65,36.65,0,0,1,12.47,2A25.65,25.65,0,0,1,866.3,101a25.19,25.19,0,0,1,6,9.37,36.09,36.09,0,0,1,2.1,12.76,41.39,41.39,0,0,1-2.68,15,34.06,34.06,0,0,1-7.93,12.19,36.92,36.92,0,0,1-12.95,8.17,49.32,49.32,0,0,1-17.83,3H805.66ZM834.71,146a20.67,20.67,0,0,0,9.61-2.06,18.77,18.77,0,0,0,6.45-5.3,21.09,21.09,0,0,0,3.59-7.26,30.47,30.47,0,0,0,1.1-8,22.83,22.83,0,0,0-.72-5.93,12.28,12.28,0,0,0-2.3-4.63,10.16,10.16,0,0,0-4.06-3,15.41,15.41,0,0,0-6-1h-7.45L827,146Z" fill="#221f20"/><path d="M904.2,119.19H933l-3.25,15.1H901l-2.48,12H931l-4.39,15.1H877.15l14.43-68.24h48.85l-3.16,15.1H906.49Z" fill="#221f20"/><path d="M1013.83,137.35q-2.77,13.1-10.28,19.45t-19.73,6.35q-11.67,0-18.36-6.3t-6.69-17.59v-1.58a16.07,16.07,0,0,1,.1-1.67h18.25v2a18.32,18.32,0,0,0,.34,3.44,8.22,8.22,0,0,0,1.19,3,6.45,6.45,0,0,0,2.39,2.1,8.6,8.6,0,0,0,4,.81,8.38,8.38,0,0,0,7-3.1,20.91,20.91,0,0,0,3.59-8.84l9.08-42.25h18.35Z" fill="#221f20"/><path d="M1042.5,161.15a25.45,25.45,0,0,1-9.32-5.88,26.12,26.12,0,0,1-6-9.51,36.83,36.83,0,0,1-2.11-12.91,47.2,47.2,0,0,1,2.54-15.29,41,41,0,0,1,7.4-13.28,35.93,35.93,0,0,1,28.11-12.81,34.8,34.8,0,0,1,12.13,2,25.22,25.22,0,0,1,9.32,5.87,26.14,26.14,0,0,1,6,9.51,36.84,36.84,0,0,1,2.1,12.91,47,47,0,0,1-2.53,15.34,41.29,41.29,0,0,1-7.41,13.24,35.48,35.48,0,0,1-28.1,12.8A34.86,34.86,0,0,1,1042.5,161.15ZM1064,144.9a18.76,18.76,0,0,0,5.59-6.31,30.35,30.35,0,0,0,3.06-8.27,40.29,40.29,0,0,0,1-8.36,27,27,0,0,0-.57-5.64,12.89,12.89,0,0,0-2-4.68,10.25,10.25,0,0,0-3.58-3.21,11.41,11.41,0,0,0-5.45-1.19,13.69,13.69,0,0,0-8.22,2.48,18.84,18.84,0,0,0-5.54,6.31,29.68,29.68,0,0,0-3.06,8.32,40,40,0,0,0-1,8.31,27,27,0,0,0,.57,5.64,13.55,13.55,0,0,0,2,4.73,9.73,9.73,0,0,0,3.59,3.21,11.73,11.73,0,0,0,5.45,1.14A13.77,13.77,0,0,0,1064,144.9Z" fill="#221f20"/><path d="M1128.24,93.19,1123,117.94h22.17l5.26-24.75h18.35l-14.43,68.24H1136l5.64-27h-22.18l-5.64,27h-18.35l14.43-68.24Z" fill="#221f20"/><path d="M1192.75,121.38l-8.51,40.05h-17.3l14.43-68.24h15.68l16.54,40.24,8.5-40.24h17.3L1225,161.43h-15.58Z" fill="#221f20"/><circle cx="204.4" cy="127.79" r="126.29" fill="#a5a39f" stroke="#221f20" stroke-miterlimit="10" stroke-width="3"/><circle cx="204.4" cy="127.79" r="113.8" fill="#c9c57a" stroke="#000" stroke-miterlimit="10" stroke-width="3"/><path d="M142.23,75c-6-9.87-10-16-11.58-3.73s10.12,43.17,10.12,43.17" fill="#f1c08f" stroke="#221f20" stroke-miterlimit="10" stroke-width="3"/><circle cx="201.34" cy="128.85" r="84.61" fill="#f1c08f" stroke="#221f20" stroke-miterlimit="10" stroke-width="3"/><path d="M125.15,87.05C152.46,112.11,192,84.91,192,84.91c0,27.2,48.8,76,93.95,68,0,0,17.61-88.94-70.35-108.62C166.7,33.3,125.15,87.05,125.15,87.05Z" fill="#e68d40" stroke="#221f20" stroke-miterlimit="10" stroke-width="3"/><path d="M265.91,156.7c5.59-4.16,23.29-13.25,26.34-5.84s5.17,21.13-5.5,30.66c-4.57,4.07-15.25,2.33-16.78-3.92" fill="#f1c08f" stroke="#221f20" stroke-miterlimit="10" stroke-width="3"/><path d="M288.27,172s2.55-6.23,0-15.29-10.16,1.94-17.79,6.75c0,0,12.2,0,3.56,8.54" fill="#f1c08f" stroke="#221f20" stroke-miterlimit="10" stroke-width="3"/><path d="M202,84.31c30,51.55,46.35,53.55,85.11,46.75" fill="#e68d40" stroke="#221f20" stroke-miterlimit="10" stroke-width="3"/><path d="M189.23,76.72c-12.72,9.29-47.12,17.76-54.35-1" fill="#e68d40" stroke="#221f20" stroke-miterlimit="10" stroke-width="3"/><path d="M142.47,180.76c4.2,5.85,10.63,16.64,24.2,12.44" fill="#f1c08f" stroke="#221f20" stroke-miterlimit="10" stroke-width="3"/><line x1="233.59" y1="196.6" x2="233.59" y2="203.39" fill="#a5a39f" stroke="#221f20" stroke-miterlimit="10" stroke-width="3"/><line x1="238.38" y1="187.06" x2="240.78" y2="191.53" fill="#a5a39f" stroke="#221f20" stroke-miterlimit="10" stroke-width="3"/><line x1="247.57" y1="183.41" x2="250.37" y2="191.53" fill="#a5a39f" stroke="#221f20" stroke-miterlimit="10" stroke-width="3"/><line x1="248.97" y1="173.08" x2="254.76" y2="180.36" fill="#a5a39f" stroke="#221f20" stroke-miterlimit="10" stroke-width="3"/><line x1="248.97" y1="164.38" x2="251.87" y2="168.23" fill="#a5a39f" stroke="#221f20" stroke-miterlimit="10" stroke-width="3"/><line x1="251.87" y1="158.33" x2="257.66" y2="161.07" fill="#a5a39f" stroke="#221f20" stroke-miterlimit="10" stroke-width="3"/><line x1="245.57" y1="153.92" x2="247.57" y2="158.33" fill="#a5a39f" stroke="#221f20" stroke-miterlimit="10" stroke-width="3"/><line x1="257.66" y1="173.08" x2="260.76" y2="178.62" fill="#a5a39f" stroke="#221f20" stroke-miterlimit="10" stroke-width="3"/><line x1="240.78" y1="200" x2="245.57" y2="206.59" fill="#a5a39f" stroke="#221f20" stroke-miterlimit="10" stroke-width="3"/><line x1="247.57" y1="196.6" x2="251.87" y2="200" fill="#a5a39f" stroke="#221f20" stroke-miterlimit="10" stroke-width="3"/><line x1="227.19" y1="206.59" x2="229.59" y2="213.46" fill="#a5a39f" stroke="#221f20" stroke-miterlimit="10" stroke-width="3"/><line x1="199.62" y1="209.79" x2="200.42" y2="218.18" fill="#a5a39f" stroke="#221f20" stroke-miterlimit="10" stroke-width="3"/><line x1="188.83" y1="208.19" x2="187.63" y2="214.98" fill="#a5a39f" stroke="#221f20" stroke-miterlimit="10" stroke-width="3"/><line x1="177.24" y1="205.39" x2="174.04" y2="211.78" fill="#a5a39f" stroke="#221f20" stroke-miterlimit="10" stroke-width="3"/><line x1="168.05" y1="201.39" x2="167.25" y2="205.39" fill="#a5a39f" stroke="#221f20" stroke-miterlimit="10" stroke-width="3"/><line x1="158.86" y1="198.6" x2="154.46" y2="203.39" fill="#a5a39f" stroke="#221f20" stroke-miterlimit="10" stroke-width="3"/><line x1="208.81" y1="210.99" x2="211.21" y2="216.98" fill="#a5a39f" stroke="#221f20" stroke-miterlimit="10" stroke-width="3"/><line x1="218.8" y1="201.39" x2="219.2" y2="206.59" fill="#a5a39f" stroke="#221f20" stroke-miterlimit="10" stroke-width="3"/><line x1="220" y1="213.78" x2="222.8" y2="208.19" fill="#a5a39f" stroke="#221f20" stroke-miterlimit="10" stroke-width="3"/><path d="M168.05,135c-4.8,1-8-.4-8.19-4.4s-4,7.6-7-3.39-4.39,7.79-8.59-5.2-.4,7.59-5.39-2.79-4.4.59-3,3,5,5.8,6.19,4.4,2,9.39,6,3.39,2.2,15.39,8.59,8.2-2.33,12.05,11,.4C174,133,168.05,135,168.05,135Z" fill="#e68d40" stroke="#221f20" stroke-miterlimit="10" stroke-width="3"/><path d="M171.89,137.09c1.39,4.7,4.13,6.86,7.75,5.15s-4.81,7.1,6.29,4.55-4.79,7.56,8.64,5.12-6.5,3.94,5,3.44,1.55,4.16-1.22,4.05-7.47-1.66-6.8-3.38-9.22,2.68-5.83-3.68-14.6,5.33-11.28-3.7-9.52,7.75-5.54-9.5C170.82,130.86,171.89,137.09,171.89,137.09Z" fill="#e68d40" stroke="#221f20" stroke-miterlimit="10" stroke-width="3"/><rect x="156.23" y="147.15" width="5.2" height="5.2" rx="1.15" ry="1.15" fill="#221f20" stroke="#221f20" stroke-miterlimit="10" stroke-width="3"/><rect x="164.85" y="151.84" width="5.2" height="5.2" rx="1.15" ry="1.15" fill="#221f20" stroke="#221f20" stroke-miterlimit="10" stroke-width="3"/><path d="M162.45,165c17.78,6.21,29.79,14.83,31.63,27.05s-.79,16.3-.79,16.3c-12.22,4.89-11.81-10.18-11.81-10.18-13,3.26-11.82-10.8-12.63-10.39-9.79,4.89-12.84-7.34-12.84-7.34s-10.44,6.49-11.94-10c0,0-12.78,10-12.78-2.65,0,0-12.76,11-12.76-.8,0,0,2.11-13.76,7.61-16.51s12.74,3.32,25.92,8.92" fill="#e68d40" stroke="#221f20" stroke-miterlimit="10" stroke-width="3"/><path d="M156.41,153.38c-11.54,6.86-25.21,10.46-18.93,18.74,6.81,9,19.37-2.83,31.52-8.46" fill="#f1c08f" stroke="#221f20" stroke-miterlimit="10" stroke-width="3"/><path d="M286.43,138.26c-14.08,3.29-25.17,7.49-42.85-.3" fill="#e68d40" stroke="#221f20" stroke-miterlimit="10" stroke-width="3"/><line x1="140.78" y1="185.01" x2="135.08" y2="188.31" fill="#e68d40" stroke="#221f20" stroke-miterlimit="10" stroke-width="3"/><line x1="135.08" y1="177.82" x2="128.79" y2="178.42" fill="#e68d40" stroke="#221f20" stroke-miterlimit="10" stroke-width="3"/><line x1="146.17" y1="192.5" x2="143.77" y2="196.4" fill="#e68d40" stroke="#221f20" stroke-miterlimit="10" stroke-width="3"/></g></g></svg>