<svg xmlns="http://www.w3.org/2000/svg" viewBox="0 0 1344.91 255.58"><defs><style>.cls-1{fill:#b1aca6;}.cls-1,.cls-3,.cls-4,.cls-5,.cls-6{stroke:#1d1d1b;}.cls-1,.cls-2,.cls-3,.cls-4,.cls-5,.cls-6{stroke-miterlimit:10;stroke-width:3px;}.cls-2{fill:#d3ca68;stroke:#000;}.cls-3{fill:#fac48c;}.cls-4{fill:#f18410;}.cls-5{fill:none;}.cls-6,.cls-7{fill:#1d1d1b;}</style></defs><title>Fichier 1</title><g id="Calque_2" data-name="Calque 2"><g id="maquettes-blog"><rect class="cls-1" x="1.5" y="44.98" width="1341.91" height="170.13" rx="85.06" ry="85.06"/><path class="cls-2" d="M87.44,62.39H1250.15a67.93,67.93,0,0,1,67.93,67.93h0a67.93,67.93,0,0,1-67.93,67.93H87.44a67.93,67.93,0,0,1-67.93-67.93h0A67.93,67.93,0,0,1,87.44,62.39Z"/><circle class="cls-1" cx="211.97" cy="127.79" r="126.29"/><circle class="cls-2" cx="211.97" cy="127.79" r="113.8"/><path class="cls-3" d="M149.81,75c-6-9.87-10-16-11.58-3.73s10.11,43.17,10.11,43.17"/><circle class="cls-3" cx="208.92" cy="128.85" r="84.61"/><path class="cls-4" d="M132.73,87.05c27.3,25.06,66.85-2.14,66.85-2.14,0,27.2,48.79,76,93.94,68,0,0,17.61-88.94-70.35-108.62C174.28,33.3,132.73,87.05,132.73,87.05Z"/><path class="cls-3" d="M273.48,156.7c5.59-4.16,23.29-13.25,26.34-5.84s5.18,21.13-5.5,30.66c-4.56,4.07-15.25,2.33-16.77-3.92"/><path class="cls-3" d="M295.85,172s2.54-6.23,0-15.29-10.17,1.94-17.79,6.75c0,0,12.2,0,3.56,8.54"/><path class="cls-4" d="M209.59,84.31c30,51.55,46.35,53.55,85.12,46.75"/><path class="cls-4" d="M196.8,76.72c-12.71,9.29-47.11,17.76-54.34-1"/><path class="cls-3" d="M150.05,180.76c4.19,5.85,10.62,16.64,24.19,12.44"/><line class="cls-5" x1="241.16" y1="196.6" x2="241.16" y2="203.39"/><line class="cls-5" x1="245.95" y1="187.06" x2="248.35" y2="191.53"/><line class="cls-5" x1="255.15" y1="183.41" x2="257.94" y2="191.53"/><line class="cls-5" x1="256.54" y1="173.08" x2="262.34" y2="180.36"/><line class="cls-5" x1="256.54" y1="164.38" x2="259.44" y2="168.23"/><line class="cls-5" x1="259.44" y1="158.33" x2="265.24" y2="161.07"/><line class="cls-5" x1="253.15" y1="153.92" x2="255.15" y2="158.33"/><line class="cls-5" x1="265.24" y1="173.08" x2="268.33" y2="178.62"/><line class="cls-5" x1="248.35" y1="200" x2="253.15" y2="206.59"/><line class="cls-5" x1="255.15" y1="196.6" x2="259.44" y2="200"/><line class="cls-5" x1="234.77" y1="206.59" x2="237.16" y2="213.46"/><line class="cls-5" x1="207.19" y1="209.79" x2="207.99" y2="218.18"/><line class="cls-5" x1="196.4" y1="208.19" x2="195.2" y2="214.98"/><line class="cls-5" x1="184.81" y1="205.39" x2="181.62" y2="211.78"/><line class="cls-5" x1="175.62" y1="201.39" x2="174.82" y2="205.39"/><line class="cls-5" x1="166.43" y1="198.6" x2="162.04" y2="203.39"/><line class="cls-5" x1="216.38" y1="210.99" x2="218.78" y2="216.98"/><line class="cls-5" x1="226.37" y1="201.39" x2="226.77" y2="206.59"/><line class="cls-5" x1="227.57" y1="213.78" x2="230.37" y2="208.19"/><path class="cls-4" d="M175.62,135c-4.79,1-8-.4-8.19-4.4s-4,7.6-7-3.39S156,135,151.85,122s-.4,7.59-5.4-2.79-4.39.59-3,3,5,5.8,6.2,4.4,2,9.39,6,3.39,2.2,15.39,8.59,8.2-2.33,12.05,11,.4C181.62,133,175.62,135,175.62,135Z"/><path class="cls-4" d="M179.47,137.09c1.38,4.7,4.12,6.86,7.74,5.15s-4.81,7.1,6.3,4.55-4.8,7.56,8.63,5.12-6.5,3.94,5,3.44,1.54,4.16-1.23,4.05-7.47-1.66-6.8-3.38-9.22,2.68-5.82-3.68-14.6,5.33-11.28-3.7-9.53,7.75-5.55-9.5C178.4,130.86,179.47,137.09,179.47,137.09Z"/><path class="cls-6" d="M166.41,147.15h0a2.6,2.6,0,0,1,2.6,2.6h0a2.6,2.6,0,0,1-2.6,2.6h0a2.6,2.6,0,0,1-2.6-2.6h0A2.6,2.6,0,0,1,166.41,147.15Z"/><path class="cls-6" d="M175,151.84h0a2.6,2.6,0,0,1,2.6,2.6h0A2.6,2.6,0,0,1,175,157h0a2.6,2.6,0,0,1-2.6-2.6h0A2.6,2.6,0,0,1,175,151.84Z"/><path class="cls-4" d="M170,165c17.77,6.21,29.79,14.83,31.62,27.05s-.78,16.3-.78,16.3C188.61,213.24,189,198.17,189,198.17c-13,3.26-11.81-10.8-12.63-10.39-9.78,4.89-12.83-7.34-12.83-7.34s-10.45,6.49-11.94-10c0,0-12.79,10-12.79-2.65,0,0-12.75,11-12.75-.8,0,0,2.11-13.76,7.61-16.51s12.73,3.32,25.92,8.92"/><path class="cls-3" d="M164,153.38c-11.53,6.86-25.2,10.46-18.93,18.74,6.82,9,19.38-2.83,31.53-8.46"/><path class="cls-4" d="M294,138.26c-14.09,3.29-25.18,7.49-42.86-.3"/><line class="cls-5" x1="148.35" y1="185.01" x2="142.66" y2="188.31"/><line class="cls-5" x1="142.66" y1="177.82" x2="136.36" y2="178.42"/><line class="cls-5" x1="153.74" y1="192.5" x2="151.35" y2="196.4"/><path class="cls-7" d="M398.5,94.68h18.35l-11.09,52.66h30l-4.69,15.58h-47Z"/><path class="cls-7" d="M468.08,120.67h28.77l-3.25,15.11H464.83l-2.49,12h32.5l-4.39,15.1H441l14.43-68.24H504.3l-3.15,15.1H470.37Z"/><path class="cls-7" d="M580.91,121.49a19.44,19.44,0,0,1-8.75,6.26,16,16,0,0,1,6.17,5.4,14.5,14.5,0,0,1,2.15,8.07,20.63,20.63,0,0,1-1.86,8.85A18.47,18.47,0,0,1,573,156.9a27.83,27.83,0,0,1-9.47,4.44,49.37,49.37,0,0,1-13.23,1.58H521l14.43-68.24h25.71A38.46,38.46,0,0,1,571.88,96,19.72,19.72,0,0,1,579,99.46a13.27,13.27,0,0,1,3.92,5.16,16.07,16.07,0,0,1,1.24,6.31A16.84,16.84,0,0,1,580.91,121.49Zm-29,27.67q5.36,0,8.12-2.11c1.85-1.4,2.78-3.56,2.78-6.5a5.91,5.91,0,0,0-1.87-4.68q-1.86-1.62-6.26-1.62H544.16l-3.25,14.91Zm5.73-28.29a17.32,17.32,0,0,0,3.45-.34,8.66,8.66,0,0,0,2.86-1.1,5.31,5.31,0,0,0,2-2.15,7.26,7.26,0,0,0,.72-3.39,4.78,4.78,0,0,0-1.82-4.06q-1.81-1.39-5.73-1.39H549.7l-2.77,12.43Z"/><path class="cls-7" d="M599.4,94.68h18.35l-11.08,52.66h30L632,162.92H585Z"/><path class="cls-7" d="M659.9,162.63a25.26,25.26,0,0,1-9.31-5.87,26,26,0,0,1-6-9.51,36.87,36.87,0,0,1-2.1-12.91A47.19,47.19,0,0,1,645,119.05a41.22,41.22,0,0,1,7.41-13.29A35.84,35.84,0,0,1,680.55,93a35.09,35.09,0,0,1,12.14,2,25.45,25.45,0,0,1,9.32,5.88,26.12,26.12,0,0,1,6,9.51,36.84,36.84,0,0,1,2.1,12.91,47.09,47.09,0,0,1-2.53,15.34,41.25,41.25,0,0,1-7.41,13.23A35.49,35.49,0,0,1,672,164.64,34.9,34.9,0,0,1,659.9,162.63Zm21.46-16.24a18.66,18.66,0,0,0,5.59-6.31,29.82,29.82,0,0,0,3.06-8.27,39.67,39.67,0,0,0,1-8.36,26.3,26.3,0,0,0-.58-5.64,12.76,12.76,0,0,0-2-4.69,10.23,10.23,0,0,0-3.58-3.2,11.38,11.38,0,0,0-5.45-1.19,13.66,13.66,0,0,0-8.22,2.48,19,19,0,0,0-5.54,6.31,30.31,30.31,0,0,0-3.06,8.32,39.88,39.88,0,0,0-1,8.31,27,27,0,0,0,.58,5.64,13.26,13.26,0,0,0,2,4.73,9.59,9.59,0,0,0,3.58,3.2,11.63,11.63,0,0,0,5.45,1.15,13.75,13.75,0,0,0,8.17-2.48Z"/><path class="cls-7" d="M754.53,108.44a13.78,13.78,0,0,0-7.65,2.1,17.41,17.41,0,0,0-5.4,5.59,26.94,26.94,0,0,0-3.2,7.89,38.55,38.55,0,0,0-1,9,27.13,27.13,0,0,0,.71,6.41,14.34,14.34,0,0,0,2.34,5.16,10.76,10.76,0,0,0,4.16,3.39,14.59,14.59,0,0,0,6.26,1.2,25.4,25.4,0,0,0,5.07-.53,12.79,12.79,0,0,0,4.49-1.77l1.82-8.12h-10.9l3.16-14.82H782.2l-6.88,32.22a39.77,39.77,0,0,1-5.12,3.15,44.29,44.29,0,0,1-6.4,2.72,50.71,50.71,0,0,1-7.5,1.92,48.06,48.06,0,0,1-8.32.71,33.24,33.24,0,0,1-13.67-2.53,25.35,25.35,0,0,1-9.17-6.74,26.4,26.4,0,0,1-5.16-9.8,41.79,41.79,0,0,1-1.63-11.8,47.12,47.12,0,0,1,2.44-15.05,40.08,40.08,0,0,1,7.17-13,35,35,0,0,1,11.9-9.23A36.94,36.94,0,0,1,756.15,93a34.17,34.17,0,0,1,11,1.62,23.39,23.39,0,0,1,8.08,4.54,20.13,20.13,0,0,1,5.11,7,25.56,25.56,0,0,1,2.11,9l-18.26,2.1Q763,108.44,754.53,108.44Z"/><path class="cls-7" d="M820.09,94.68h24.28a36.66,36.66,0,0,1,12.47,2,25.81,25.81,0,0,1,9.46,5.79,25.28,25.28,0,0,1,6,9.36,36.13,36.13,0,0,1,2.1,12.76,41.41,41.41,0,0,1-2.68,15,34.15,34.15,0,0,1-7.93,12.19,37.06,37.06,0,0,1-13,8.22A49.54,49.54,0,0,1,833,163H805.66Zm14.62,52.76a20.67,20.67,0,0,0,9.61-2.06,19,19,0,0,0,6.45-5.3,21,21,0,0,0,3.59-7.27,30.35,30.35,0,0,0,1.1-8,22.76,22.76,0,0,0-.72-5.92,12.46,12.46,0,0,0-2.29-4.64,10.33,10.33,0,0,0-4.07-3,15.41,15.41,0,0,0-6-1h-7.45L827,147.44Z"/><path class="cls-7" d="M904.2,120.67H933l-3.25,15.11H901l-2.49,12H931l-4.39,15.1H877.15l14.43-68.24h48.84l-3.15,15.1H906.49Z"/><path class="cls-7" d="M1013.83,138.83q-2.77,13.1-10.28,19.46t-19.73,6.35q-11.67,0-18.36-6.31t-6.69-17.58v-1.58a13.72,13.72,0,0,1,.1-1.67h18.26v2a18.14,18.14,0,0,0,.33,3.44,8.27,8.27,0,0,0,1.19,3A6.45,6.45,0,0,0,981,148a8.6,8.6,0,0,0,4,.81,8.36,8.36,0,0,0,7-3.11,20.86,20.86,0,0,0,3.59-8.84l9.08-42.24h18.35Z"/><path class="cls-7" d="M1042.5,162.63a25.3,25.3,0,0,1-9.32-5.87,26.12,26.12,0,0,1-6-9.51,36.64,36.64,0,0,1-2.11-12.91,47.2,47.2,0,0,1,2.54-15.29,41.19,41.19,0,0,1,7.4-13.29,35.88,35.88,0,0,1,28.1-12.8,35,35,0,0,1,12.14,2,25.37,25.37,0,0,1,9.32,5.88,26.28,26.28,0,0,1,6,9.51,36.84,36.84,0,0,1,2.1,12.91,47.09,47.09,0,0,1-2.53,15.34,41.25,41.25,0,0,1-7.41,13.23,35.53,35.53,0,0,1-28.1,12.81A34.86,34.86,0,0,1,1042.5,162.63Zm21.5-16.24a18.76,18.76,0,0,0,5.59-6.31,30.47,30.47,0,0,0,3.06-8.27,40.29,40.29,0,0,0,1-8.36,27,27,0,0,0-.57-5.64,12.94,12.94,0,0,0-2-4.69,10.32,10.32,0,0,0-3.58-3.2,11.41,11.41,0,0,0-5.45-1.19,13.62,13.62,0,0,0-8.22,2.48,19,19,0,0,0-5.55,6.31,30,30,0,0,0-3,8.32,39.88,39.88,0,0,0-1,8.31,27,27,0,0,0,.57,5.64,13.63,13.63,0,0,0,2,4.73,9.62,9.62,0,0,0,3.59,3.2,11.6,11.6,0,0,0,5.45,1.15A13.77,13.77,0,0,0,1064,146.39Z"/><path class="cls-7" d="M1128.23,94.68,1123,119.43h22.17l5.26-24.75h18.35l-14.43,68.24H1136l5.64-26.95h-22.18l-5.64,26.95h-18.35l14.43-68.24Z"/><path class="cls-7" d="M1192.75,122.87l-8.51,40h-17.3l14.43-68.24h15.68l16.54,40.24,8.5-40.24h17.3L1225,162.92h-15.58Z"/></g></g></svg>