<svg xmlns="http://www.w3.org/2000/svg" viewBox="0 0 299.44 218.34"><defs><style>.cls-1{fill:#fee767;stroke:#1d1d1b;stroke-miterlimit:10;stroke-width:3px;}.cls-2{fill:#1d1d1b;}</style></defs><title>Fichier 2</title><g id="Calque_2" data-name="Calque 2"><g id="maquettes-blog"><polygon class="cls-1" points="53.73 113.05 60.12 70.88 111.99 79.9 114.9 44.23 163.27 66.08 159.51 20.02 202.83 48.06 234.69 3.45 250.27 61.03 294.59 63.35 252.72 89.33 283.79 141.19 232.05 122.91 229.36 193.31 175 151.14 163.29 215.47 114.68 173.07 88.14 212.45 67.44 175.23 29.52 190.79 46.09 150.01 4.03 109.23 53.73 113.05"/><path class="cls-2" d="M73,131.63a4.27,4.27,0,0,1-2.33-2.77,4.75,4.75,0,0,1-.12-2.92,5.56,5.56,0,0,1,1.42-2.37,10.84,10.84,0,0,1,2.44-1.84,20.33,20.33,0,0,1,2.92-1.36l2.29-.89-.07-.51a2.32,2.32,0,0,0,0-.3,1.81,1.81,0,0,0-.08-.29,1.63,1.63,0,0,0-.83-1,2.07,2.07,0,0,0-1.55,0,2.54,2.54,0,0,0-1.3.86,2.43,2.43,0,0,0-.43,1.43l-4.9,1.2a6,6,0,0,1,1.25-4.42,9.44,9.44,0,0,1,4.66-3,7.61,7.61,0,0,1,5.16-.21,5,5,0,0,1,2.89,3.31,8.91,8.91,0,0,1,.27,1,7.69,7.69,0,0,1,.17,1.07l1.06,9.62-5,1.64L80.68,128a7.8,7.8,0,0,1-1.6,2.3,6.28,6.28,0,0,1-2.41,1.41A5,5,0,0,1,73,131.63Zm5.37-8.23a6.63,6.63,0,0,0-2.5,1.49,1.58,1.58,0,0,0-.34,1.64,1.3,1.3,0,0,0,.67.82,1.77,1.77,0,0,0,1.31-.06A3.68,3.68,0,0,0,79.3,126a4,4,0,0,0,.57-1.07,3.39,3.39,0,0,0,.15-1.46l-.07-.7Z"/><path class="cls-2" d="M104.31,120.23a17.69,17.69,0,0,1,0,3.76,8,8,0,0,1-.86,3,6.93,6.93,0,0,1-2,2.26,11.59,11.59,0,0,1-3.25,1.6,12.24,12.24,0,0,1-3.37.67,6.67,6.67,0,0,1-2.68-.39,5.28,5.28,0,0,1-2-1.29,5.73,5.73,0,0,1-1.2-2.07L94.21,126a2,2,0,0,0,1,1A2.69,2.69,0,0,0,97,126.9a2.64,2.64,0,0,0,1.2-.73,2.76,2.76,0,0,0,.61-1.1,4,4,0,0,0,.17-1.38,9.49,9.49,0,0,0-.1-1.62L98.71,121A5.91,5.91,0,0,1,95,124.36a5.25,5.25,0,0,1-4.41-.3A7,7,0,0,1,87.68,120a11.84,11.84,0,0,1-.62-3.82,10.18,10.18,0,0,1,.61-3.51,8.46,8.46,0,0,1,1.72-2.82,6.25,6.25,0,0,1,2.7-1.74,5.88,5.88,0,0,1,3-.27,4.93,4.93,0,0,1,2.49,1.3l-.26-2.2,5.22-1.73Zm-6.13-5.93a4.12,4.12,0,0,0-.13-.47,3.42,3.42,0,0,0-.44-.9,2.48,2.48,0,0,0-.69-.68,2.21,2.21,0,0,0-.93-.34,2.51,2.51,0,0,0-1.15.13,2.38,2.38,0,0,0-1.29.93A3.77,3.77,0,0,0,93,114.4,5.55,5.55,0,0,0,92.9,116a7.67,7.67,0,0,0,.31,1.49,2.4,2.4,0,0,0,1.26,1.63,2.8,2.8,0,0,0,2-.05A2.77,2.77,0,0,0,98,117.53a4.7,4.7,0,0,0,.31-2.19v-.55a1.09,1.09,0,0,1-.16-.49Z"/><path class="cls-2" d="M116.27,105.55a6.51,6.51,0,0,0-.94.24,4.19,4.19,0,0,0-2.57,2,5.56,5.56,0,0,0-.47,3.19l.92,8.17-5.4,1.79-1.88-16.77,5.26-1.74.22,2.08a6.16,6.16,0,0,1,3.83-3.75,5.92,5.92,0,0,1,.88-.22c.25,0,.51-.07.77-.09l.18,5A7.6,7.6,0,0,0,116.27,105.55Z"/><path class="cls-2" d="M126.43,114.73l-5.4,1.79-1.87-16.73,5.4-1.79Zm-2.12-18.6-5.46,1.81-.42-4.15L123.9,92Z"/><path class="cls-2" d="M136.93,98.79a1.46,1.46,0,0,0-1.41-.16,2.32,2.32,0,0,0-1.22.9,3.76,3.76,0,0,0-.61,1.51,6.47,6.47,0,0,0-.06,1.88,9.32,9.32,0,0,0,.43,2,4,4,0,0,0,1.16,2,1.76,1.76,0,0,0,1.76.19,2.18,2.18,0,0,0,1.36-1.06,3.66,3.66,0,0,0,.28-1.9l5.19-1.71a8,8,0,0,1-1,5.61,8.57,8.57,0,0,1-4.8,3.54,7.51,7.51,0,0,1-5.75-.1,7.39,7.39,0,0,1-3.61-4.65,11.53,11.53,0,0,1-.6-4,9.62,9.62,0,0,1,.84-3.66,8.71,8.71,0,0,1,2.19-2.94,9.53,9.53,0,0,1,3.42-1.93,7,7,0,0,1,5.17,0,6.18,6.18,0,0,1,3.22,3.62l-5,2.37A3.17,3.17,0,0,0,136.93,98.79Z"/><path class="cls-2" d="M151.33,99.41a3.65,3.65,0,0,0,.06.49,3.58,3.58,0,0,0,.12.47,1.91,1.91,0,0,0,.65.95,1.26,1.26,0,0,0,1.22.09,2.52,2.52,0,0,0,1-.55,3.42,3.42,0,0,0,.61-.7,3.27,3.27,0,0,0,.49-2.21l-1.1-9.84,5.4-1.79,1.88,16.77-5.26,1.74-.22-2a6.2,6.2,0,0,1-3.89,3.87,5.17,5.17,0,0,1-2,.29,3.74,3.74,0,0,1-1.66-.53,4.42,4.42,0,0,1-1.29-1.19,6.11,6.11,0,0,1-.88-1.77,8.86,8.86,0,0,1-.4-1.79l-1.18-10.47,5.4-1.78Z"/><path class="cls-2" d="M162.35,79.2l5.4-1.79,2.55,22.81L164.9,102Z"/><path class="cls-2" d="M179.5,90.48a3.31,3.31,0,0,0,.06.48,2.16,2.16,0,0,0,.09.4,1.31,1.31,0,0,0,.62.8,1.55,1.55,0,0,0,1.16,0,7.34,7.34,0,0,0,.77-.32c.26-.13.5-.27.72-.4l1.88,3.68a10.23,10.23,0,0,1-1.67,1,15.62,15.62,0,0,1-2.06.85,6.49,6.49,0,0,1-4.12.24,4,4,0,0,1-2.4-2.75,9.61,9.61,0,0,1-.41-1.92l-.68-6.07-2.51.83-.52-4.51,2.5-.83-.49-4.41,5.4-1.78.5,4.4,3.4-1.12.5,4.5-3.41,1.13Z"/><path class="cls-2" d="M189.94,86.43a4.21,4.21,0,0,0,1.39,2.24,2.31,2.31,0,0,0,2.08.12,2.73,2.73,0,0,0,1.34-.85,2.36,2.36,0,0,0,.41-1.55l5.08-1.68A6.83,6.83,0,0,1,199,89.64a9,9,0,0,1-4.67,3.15,7.77,7.77,0,0,1-5.9,0,7.32,7.32,0,0,1-3.63-4.66,11.42,11.42,0,0,1-.61-3.95,9.71,9.71,0,0,1,.77-3.64,8.48,8.48,0,0,1,2.11-2.95,9.52,9.52,0,0,1,3.43-2,8.21,8.21,0,0,1,3.13-.45,6,6,0,0,1,2.54.73,6.16,6.16,0,0,1,1.93,1.71A8.59,8.59,0,0,1,199.36,80a10,10,0,0,1,.45,2l.16,1.07Zm0-5.71a4.2,4.2,0,0,0-.51,2.47l5-1.64a3.71,3.71,0,0,0-.16-.78,2,2,0,0,0-1-1.25,2.28,2.28,0,0,0-1.67,0A3,3,0,0,0,189.94,80.72Z"/><path class="cls-2" d="M208.15,80.6a3.8,3.8,0,0,0,.06.5,4.62,4.62,0,0,0,.12.47,2,2,0,0,0,.65.94,1.24,1.24,0,0,0,1.22.1,2.66,2.66,0,0,0,1-.55,3.71,3.71,0,0,0,.61-.7,3.3,3.3,0,0,0,.5-2.22l-1.11-9.83,5.41-1.79,1.87,16.76L213.23,86,213,84a6.19,6.19,0,0,1-3.88,3.87,5,5,0,0,1-2,.29,3.73,3.73,0,0,1-1.66-.52,4.32,4.32,0,0,1-1.29-1.2,6.44,6.44,0,0,1-.88-1.76,9.17,9.17,0,0,1-.4-1.79l-1.18-10.47,5.41-1.79Z"/><path class="cls-2" d="M230.18,67.85a5.65,5.65,0,0,0-.94.24,4.17,4.17,0,0,0-2.56,2,5.4,5.4,0,0,0-.47,3.19l.91,8.17-5.4,1.79-1.87-16.77,5.25-1.74.23,2.08a6.12,6.12,0,0,1,3.82-3.75,4.77,4.77,0,0,1,.89-.22c.25,0,.5-.07.76-.09l.18,5A7.94,7.94,0,0,0,230.18,67.85Z"/><path class="cls-2" d="M88.11,146a1.44,1.44,0,0,0-1.41-.17,2.33,2.33,0,0,0-1.22.91,3.7,3.7,0,0,0-.61,1.51,6.4,6.4,0,0,0-.06,1.87,9.19,9.19,0,0,0,.43,2,4,4,0,0,0,1.15,2,1.81,1.81,0,0,0,1.77.2,2.21,2.21,0,0,0,1.36-1.06,3.68,3.68,0,0,0,.28-1.9L95,149.67a8,8,0,0,1-1,5.61,8.48,8.48,0,0,1-4.8,3.54,6.74,6.74,0,0,1-9.36-4.75,11.5,11.5,0,0,1-.6-4,9.57,9.57,0,0,1,.84-3.65,8.85,8.85,0,0,1,2.19-2.95,9.51,9.51,0,0,1,3.42-1.92,7,7,0,0,1,5.17,0,6.18,6.18,0,0,1,3.22,3.62l-4.95,2.37A3.18,3.18,0,0,0,88.11,146Z"/><path class="cls-2" d="M103.43,153.51a6.85,6.85,0,0,1-2.69-.62,6.37,6.37,0,0,1-2.18-1.68,8.06,8.06,0,0,1-1.48-2.72,11.81,11.81,0,0,1-.64-4.14,9.6,9.6,0,0,1,.85-3.69,8.78,8.78,0,0,1,2.24-3,9.82,9.82,0,0,1,3.55-2,8.69,8.69,0,0,1,3-.47,7,7,0,0,1,2.69.62,6.37,6.37,0,0,1,2.18,1.68,8.16,8.16,0,0,1,1.48,2.72,11.88,11.88,0,0,1,.64,4.14,9.55,9.55,0,0,1-.84,3.71,8.68,8.68,0,0,1-2.24,3,10.11,10.11,0,0,1-3.55,2A8.54,8.54,0,0,1,103.43,153.51ZM102.85,141a3.82,3.82,0,0,0-.68,1.59,6.66,6.66,0,0,0-.1,2,9.61,9.61,0,0,0,.44,2.09,3.41,3.41,0,0,0,1.11,1.71,1.85,1.85,0,0,0,1.74.2,2.61,2.61,0,0,0,1.3-.93,3.94,3.94,0,0,0,.69-1.57,6.67,6.67,0,0,0,.1-2A9.87,9.87,0,0,0,107,142a3.37,3.37,0,0,0-1.11-1.7,1.79,1.79,0,0,0-1.74-.2,2.54,2.54,0,0,0-1.31.91Z"/><path class="cls-2" d="M125.06,136a3.87,3.87,0,0,0-.06-.49,4.62,4.62,0,0,0-.12-.47,1.83,1.83,0,0,0-.69-1,1.41,1.41,0,0,0-1.24,0,2.79,2.79,0,0,0-1,.56,4.15,4.15,0,0,0-.65.71,3.16,3.16,0,0,0-.45,1,3.7,3.7,0,0,0-.07,1.22l1.1,9.83-5.4,1.79-1.88-16.77,5.26-1.74.22,2a6.32,6.32,0,0,1,4-3.89,5.09,5.09,0,0,1,2-.29,4.08,4.08,0,0,1,1.7.52,4.4,4.4,0,0,1,1.28,1.16,6.29,6.29,0,0,1,.88,1.78,9,9,0,0,1,.4,1.79l1.18,10.47-5.4,1.79Z"/><path class="cls-2" d="M143.27,130a4.54,4.54,0,0,0-.19-1,1.77,1.77,0,0,0-.68-1,1.4,1.4,0,0,0-1.25-.05,2.72,2.72,0,0,0-1,.55,4.75,4.75,0,0,0-.66.72,3.32,3.32,0,0,0-.44,1,3.71,3.71,0,0,0-.08,1.22l1.1,9.84-5.4,1.78-1.87-16.76,5.25-1.74.22,2a6.33,6.33,0,0,1,4-3.9,5.12,5.12,0,0,1,2.06-.28,3.89,3.89,0,0,1,1.69.51A4.3,4.3,0,0,1,147.3,124a6.38,6.38,0,0,1,.89,1.77,10,10,0,0,1,.39,1.79l1.18,10.48-5.4,1.78Z"/><path class="cls-2" d="M157,128.45a4.15,4.15,0,0,0,1.39,2.24,2.3,2.3,0,0,0,2.07.12,2.68,2.68,0,0,0,1.34-.85,2.31,2.31,0,0,0,.42-1.55l5.07-1.68a6.87,6.87,0,0,1-1.23,4.93,9.08,9.08,0,0,1-4.66,3.13,7.79,7.79,0,0,1-5.91,0,7.34,7.34,0,0,1-3.62-4.66,11.43,11.43,0,0,1-.62-4,9.71,9.71,0,0,1,.77-3.64,8.51,8.51,0,0,1,2.12-3,9.44,9.44,0,0,1,3.43-1.95,8.18,8.18,0,0,1,3.13-.45,6,6,0,0,1,2.54.73,6.13,6.13,0,0,1,1.92,1.71,8.88,8.88,0,0,1,1.27,2.47,11.6,11.6,0,0,1,.45,2l.16,1.07Zm0-5.71a4,4,0,0,0-.51,2.47l5-1.64a3.71,3.71,0,0,0-.15-.78,2,2,0,0,0-1-1.25,2.3,2.3,0,0,0-1.68,0,3,3,0,0,0-1.66,1.25Z"/><path class="cls-2" d="M178.06,116.26a1.44,1.44,0,0,0-1.41-.17,2.41,2.41,0,0,0-1.23.91,3.84,3.84,0,0,0-.61,1.51,6.78,6.78,0,0,0-.05,1.87,9.17,9.17,0,0,0,.42,2,4.13,4.13,0,0,0,1.16,2,1.81,1.81,0,0,0,1.77.19,2.21,2.21,0,0,0,1.36-1.06,3.68,3.68,0,0,0,.28-1.9l5.19-1.72a8,8,0,0,1-1,5.61,8.51,8.51,0,0,1-4.8,3.54,6.74,6.74,0,0,1-9.36-4.75,11.51,11.51,0,0,1-.61-4,9.44,9.44,0,0,1,.85-3.65,8.85,8.85,0,0,1,2.19-2.95,9.55,9.55,0,0,1,3.41-1.92,7,7,0,0,1,5.18,0,6.18,6.18,0,0,1,3.22,3.62l-5,2.37A3.27,3.27,0,0,0,178.06,116.26Z"/><path class="cls-2" d="M193.8,116.88a1.41,1.41,0,0,0,.05.47,3.34,3.34,0,0,0,.1.4,1.3,1.3,0,0,0,.62.81,1.51,1.51,0,0,0,1.16,0,4.64,4.64,0,0,0,.77-.32,7.81,7.81,0,0,0,.71-.4l1.88,3.68a10.38,10.38,0,0,1-1.66,1,15.58,15.58,0,0,1-2.06.84,6.49,6.49,0,0,1-4.12.24,3.93,3.93,0,0,1-2.4-2.75,8.7,8.7,0,0,1-.41-1.92l-.68-6.06-2.51.83-.5-4.51,2.51-.83-.5-4.4,5.41-1.79.49,4.41,3.41-1.13.49,4.5-3.4,1.13Z"/><path class="cls-2" d="M204.24,112.79a4.17,4.17,0,0,0,1.39,2.24,2.34,2.34,0,0,0,2.08.13,2.86,2.86,0,0,0,1.34-.86,2.33,2.33,0,0,0,.38-1.51l5.07-1.68a6.81,6.81,0,0,1-1.23,4.92,9.11,9.11,0,0,1-4.67,3.16,7.81,7.81,0,0,1-5.9,0,7.32,7.32,0,0,1-3.63-4.66,11.42,11.42,0,0,1-.61-3.95,9.69,9.69,0,0,1,.76-3.63,8.55,8.55,0,0,1,2.12-3,9.51,9.51,0,0,1,3.43-1.94,8,8,0,0,1,3.13-.46,5.88,5.88,0,0,1,4.47,2.45,8.54,8.54,0,0,1,1.26,2.46,11.82,11.82,0,0,1,.45,2l.16,1.07Zm0-5.71a4.2,4.2,0,0,0-.51,2.47l5-1.64a3.49,3.49,0,0,0-.16-.77,1.94,1.94,0,0,0-1-1.25,2.23,2.23,0,0,0-1.67,0,2.91,2.91,0,0,0-1.66,1.22Zm.25-11.95,6.18-2.05-4.19,6.85-5.11,1.69Z"/><path class="cls-2" d="M229.3,106.09l.63,5.52-5,1.66-.67-5.51ZM227.71,88.7l1.18,15.67-4.8,1.59-2.26-15.32Z"/></g></g></svg>