<svg xmlns="http://www.w3.org/2000/svg" viewBox="0 0 74.63 100.47"><title>Fichier 3</title><g id="Calque_2" data-name="Calque 2"><g id="pop-up-fin"><path d="M17.78,29.32H62.29s11.21,2.2,11.21,14.4-16.31,9.49-16.31,9.49l-39.41.26S1.13,60.76,1.13,41.39,17.78,29.32,17.78,29.32Z" fill="#f1c08f" stroke="#000" stroke-linecap="round" stroke-linejoin="round" stroke-width="2.26"/><path d="M17.78,51.58H62.29S73.5,53.78,73.5,66s-16.31,9.49-16.31,9.49l-39.41.26S1.13,83,1.13,63.65,17.78,51.58,17.78,51.58Z" fill="#f1c08f" stroke="#000" stroke-linecap="round" stroke-linejoin="round" stroke-width="2.26"/><path d="M17.78,73.84H62.29S73.5,76,73.5,88.24s-16.31,9.49-16.31,9.49L17.78,98S1.13,105.28,1.13,85.91,17.78,73.84,17.78,73.84Z" fill="#f1c08f" stroke="#000" stroke-linecap="round" stroke-linejoin="round" stroke-width="2.26"/><path d="M13.16,2.48H45.32s8.1,2.19,8.1,14.4-11.78,9.49-11.78,9.49l-28.48.26s-12,7.29-12-12.08S13.16,2.48,13.16,2.48Z" fill="#f1c08f" stroke="#000" stroke-linecap="round" stroke-linejoin="round" stroke-width="2.26"/></g></g></svg>