<svg xmlns="http://www.w3.org/2000/svg" viewBox="0 0 74.63 100.47"><title>Fichier 2</title><g id="Calque_2" data-name="Calque 2"><g id="pop-up-fin"><path d="M56.85,29.32H12.34S1.13,31.52,1.13,43.72s16.31,9.49,16.31,9.49l39.41.26S73.5,60.76,73.5,41.39,56.85,29.32,56.85,29.32Z" fill="#f1c08f" stroke="#000" stroke-linecap="round" stroke-linejoin="round" stroke-width="2.26"/><path d="M56.85,51.58H12.34S1.13,53.78,1.13,66s16.31,9.49,16.31,9.49l39.41.26S73.5,83,73.5,63.65,56.85,51.58,56.85,51.58Z" fill="#f1c08f" stroke="#000" stroke-linecap="round" stroke-linejoin="round" stroke-width="2.26"/><path d="M56.85,73.84H12.34S1.13,76,1.13,88.24s16.31,9.49,16.31,9.49L56.85,98S73.5,105.28,73.5,85.91,56.85,73.84,56.85,73.84Z" fill="#f1c08f" stroke="#000" stroke-linecap="round" stroke-linejoin="round" stroke-width="2.26"/><path d="M61.47,2.48H29.31s-8.1,2.19-8.1,14.4S33,26.37,33,26.37l28.48.26s12,7.29,12-12.08S61.47,2.48,61.47,2.48Z" fill="#f1c08f" stroke="#000" stroke-linecap="round" stroke-linejoin="round" stroke-width="2.26"/></g></g></svg>