<svg xmlns="http://www.w3.org/2000/svg" viewBox="0 0 578.01 327.12"><title>Fichier 1</title><g id="Calque_2" data-name="Calque 2"><g id="pop-up-fin"><path d="M576.32,325.43c0-153.8-192-119.17-269.65-119.17,0,0-155.87,5.57-182.2,5.57C75.52,211.83,1.7,268.31,1.7,325.43" fill="#f1c08f" stroke="#000" stroke-linecap="round" stroke-linejoin="round" stroke-width="3.39"/><line x1="499.15" y1="323.64" x2="499.15" y2="292.57" fill="#f1c08f" stroke="#000" stroke-linecap="round" stroke-linejoin="round" stroke-width="3.39"/><line x1="80.67" y1="323.83" x2="80.67" y2="297.84" fill="#f1c08f" stroke="#000" stroke-linecap="round" stroke-linejoin="round" stroke-width="3.39"/><path d="M438.76,149.72C438.76,68,372.49,13,290.74,13s-148,55-148,136.72a148,148,0,1,0,296,0Z" fill="#f1c08f" stroke="#000" stroke-linecap="round" stroke-linejoin="round" stroke-width="3.39"/><path d="M438.7,140.77C431.63,65.6,367.76,1.7,290.74,1.7c-80,0-145.19,56.69-147.93,136l-.09,5.21c118.42,7,118.42-69.85,118.42-69.85s39.77,84.32,172.12,68.65Z" fill="#e68d40" stroke="#221f20" stroke-linecap="round" stroke-linejoin="round" stroke-width="3.39"/><path d="M234.41,76s-2.32,59.21-90.56,59.21" fill="#e68d40" stroke="#221f20" stroke-linecap="round" stroke-linejoin="round" stroke-width="3.39"/><path d="M290.13,77.61s78.37,54,144.54,43.54" fill="#e68d40" stroke="#221f20" stroke-linecap="round" stroke-linejoin="round" stroke-width="3.39"/><path d="M437.82,145.2s13.93-22.64,27.86-19.16,15.68,40.05,10.45,50.5S450,213.11,432.6,181.76" fill="#f1c08f" stroke="#000" stroke-linecap="round" stroke-linejoin="round" stroke-width="3.39"/><path d="M148.91,145.2S135,122.56,121.05,126s-15.67,40.05-10.45,50.5,26.13,36.57,43.54,5.22" fill="#f1c08f" stroke="#000" stroke-linecap="round" stroke-linejoin="round" stroke-width="3.39"/><path d="M260,220.17h96.07c8.28,0,16,7.75,17.32,14.12,1.82,8.6,1.92,39.14-9.21,39.14-7.2,0-11.91-22.5-11.91-22.5s-1.34,13.1-11.31,13.29c-9.76.19-14.72-16.84-14.72-16.84S325,257,312,257s-10.65-12-10.65-12-2.67,12-16.86,12-13.89-14.33-13.89-14.33-4.74,19.06-18.93,19.06-10.65-17.87-10.65-17.87-3.88,28.07-20.44,28.07c-13.72,0-13.77-34.43-11.51-40.68,2-5.57,6.92-11.11,12.84-11.11Z" fill="#e68d40" stroke="#221f20" stroke-linecap="round" stroke-linejoin="round" stroke-width="3.39"/><path d="M276.54,207.6V249s2.37,10.65,13,10.65,14.2-14.2,14.2-14.2v-39" fill="#f1c08f" stroke="#000" stroke-linecap="round" stroke-linejoin="round" stroke-width="3.39"/><circle cx="307.42" cy="197.25" r="6.21" fill="#221f20"/><circle cx="274.05" cy="197.25" r="6.21" fill="#221f20"/><path d="M264.41,280.85s10.3-10.3,29.31-10.3,26.14,10.3,26.14,10.3" fill="none" stroke="#000" stroke-linecap="round" stroke-linejoin="round" stroke-width="3.39"/><line x1="402.19" y1="229.82" x2="412.64" y2="240.27" fill="none" stroke="#000" stroke-linecap="round" stroke-linejoin="round" stroke-width="3.39"/><line x1="420.15" y1="207.25" x2="434.08" y2="214.22" fill="none" stroke="#000" stroke-linecap="round" stroke-linejoin="round" stroke-width="3.39"/><line x1="421.35" y1="195.86" x2="434.41" y2="202.83" fill="none" stroke="#000" stroke-linecap="round" stroke-linejoin="round" stroke-width="3.39"/><line x1="412.59" y1="219.59" x2="425.65" y2="226.56" fill="none" stroke="#000" stroke-linecap="round" stroke-linejoin="round" stroke-width="3.39"/><path d="M297.39,162.7c4.33,7.23,9.83,9.64,15.12,5.24s-4.95,13.91,12.45,4.88-4.73,14.65,16.59,4.82-9.14,9.36,9.83,3.56,4.37,6.26-.29,7.29-13.16.44-12.79-2.71-14.21,8.42-11.29-3.63-22,15.16-20.38-1.32-12.54,17-13.32-13.44C292.93,152.78,297.39,162.7,297.39,162.7Z" fill="#e68d40" stroke="#000" stroke-linecap="round" stroke-linejoin="round" stroke-width="3.39"/><path d="M282.91,162.7c-4.32,7.23-9.82,9.64-15.11,5.24s4.95,13.91-12.45,4.88,4.73,14.65-16.59,4.82,9.14,9.36-9.83,3.56-4.37,6.26.29,7.29,13.16.44,12.79-2.71,14.21,8.42,11.29-3.63,22,15.16,20.38-1.32,12.54,17,13.32-13.44C287.38,152.78,282.91,162.7,282.91,162.7Z" fill="#e68d40" stroke="#000" stroke-linecap="round" stroke-linejoin="round" stroke-width="3.39"/><path d="M467.7,155.46s-4.68-38.14-26-1.13c0,0,6.78-2.26,10.17,3.39s6.78,15.82-6.78,16.95" fill="#f1c08f" stroke="#000" stroke-linecap="round" stroke-linejoin="round" stroke-width="3.39"/><path d="M118.34,155.46s4.68-38.14,26-1.13c0,0-6.78-2.26-10.17,3.39s-6.78,15.82,6.78,16.95" fill="#f1c08f" stroke="#000" stroke-linecap="round" stroke-linejoin="round" stroke-width="3.39"/><path d="M356.77,123.25s33.9,15.26,80.23,7.91" fill="#e68d40" stroke="#221f20" stroke-linecap="round" stroke-linejoin="round" stroke-width="3.39"/><line x1="165.23" y1="157.72" x2="151.67" y2="163.37" fill="#e68d40" stroke="#000" stroke-linecap="round" stroke-linejoin="round" stroke-width="3.39"/><line x1="165.23" y1="171.28" x2="151.67" y2="172.97" fill="#e68d40" stroke="#000" stroke-linecap="round" stroke-linejoin="round" stroke-width="3.39"/><line x1="168.62" y1="180.32" x2="160.71" y2="184.84" fill="#e68d40" stroke="#000" stroke-linecap="round" stroke-linejoin="round" stroke-width="3.39"/><line x1="162.97" y1="198.4" x2="146.02" y2="205.18" fill="#e68d40" stroke="#000" stroke-linecap="round" stroke-linejoin="round" stroke-width="3.39"/><line x1="161.84" y1="214.79" x2="152.24" y2="220.44" fill="#e68d40" stroke="#000" stroke-linecap="round" stroke-linejoin="round" stroke-width="3.39"/><line x1="170.88" y1="227.22" x2="161.84" y2="237.95" fill="#e68d40" stroke="#000" stroke-linecap="round" stroke-linejoin="round" stroke-width="3.39"/><line x1="181.05" y1="243.6" x2="171.45" y2="248.69" fill="#e68d40" stroke="#000" stroke-linecap="round" stroke-linejoin="round" stroke-width="3.39"/><line x1="311.57" y1="289.93" x2="313.83" y2="301.8" fill="#e68d40" stroke="#000" stroke-linecap="round" stroke-linejoin="round" stroke-width="3.39"/><line x1="382.2" y1="258.86" x2="389.54" y2="272.42" fill="#e68d40" stroke="#000" stroke-linecap="round" stroke-linejoin="round" stroke-width="3.39"/><line x1="393.5" y1="246.43" x2="399.15" y2="252.64" fill="#e68d40" stroke="#000" stroke-linecap="round" stroke-linejoin="round" stroke-width="3.39"/><line x1="349.99" y1="275.24" x2="357.34" y2="285.41" fill="#e68d40" stroke="#000" stroke-linecap="round" stroke-linejoin="round" stroke-width="3.39"/><line x1="338.13" y1="284.28" x2="340.95" y2="295.02" fill="#e68d40" stroke="#000" stroke-linecap="round" stroke-linejoin="round" stroke-width="3.39"/><line x1="375.42" y1="265.07" x2="379.94" y2="276.37" fill="#e68d40" stroke="#000" stroke-linecap="round" stroke-linejoin="round" stroke-width="3.39"/><line x1="360.16" y1="275.24" x2="368.07" y2="284.85" fill="#e68d40" stroke="#000" stroke-linecap="round" stroke-linejoin="round" stroke-width="3.39"/><line x1="260.72" y1="288.8" x2="254.5" y2="300.1" fill="#e68d40" stroke="#000" stroke-linecap="round" stroke-linejoin="round" stroke-width="3.39"/><line x1="244.9" y1="284.28" x2="237.55" y2="296.71" fill="#e68d40" stroke="#000" stroke-linecap="round" stroke-linejoin="round" stroke-width="3.39"/><line x1="230.77" y1="279.76" x2="223.43" y2="289.93" fill="#e68d40" stroke="#000" stroke-linecap="round" stroke-linejoin="round" stroke-width="3.39"/><line x1="214.95" y1="273.55" x2="211" y2="283.15" fill="#e68d40" stroke="#000" stroke-linecap="round" stroke-linejoin="round" stroke-width="3.39"/><line x1="202.52" y1="260.55" x2="198.57" y2="271.85" fill="#e68d40" stroke="#000" stroke-linecap="round" stroke-linejoin="round" stroke-width="3.39"/><line x1="198" y1="249.82" x2="192.92" y2="257.16" fill="#e68d40" stroke="#000" stroke-linecap="round" stroke-linejoin="round" stroke-width="3.39"/><line x1="417.23" y1="172.97" x2="426.27" y2="182.01" fill="#e68d40" stroke="#000" stroke-linecap="round" stroke-linejoin="round" stroke-width="3.39"/><line x1="424.01" y1="162.8" x2="430.79" y2="167.32" fill="#e68d40" stroke="#000" stroke-linecap="round" stroke-linejoin="round" stroke-width="3.39"/><line x1="413.84" y1="153.76" x2="425.14" y2="154.33" fill="#e68d40" stroke="#000" stroke-linecap="round" stroke-linejoin="round" stroke-width="3.39"/><line x1="433.61" y1="149.24" x2="438.7" y2="157.72" fill="#e68d40" stroke="#000" stroke-linecap="round" stroke-linejoin="round" stroke-width="3.39"/><line x1="408.19" y1="193.31" x2="414.4" y2="203.48" fill="#e68d40" stroke="#000" stroke-linecap="round" stroke-linejoin="round" stroke-width="3.39"/><line x1="174.27" y1="198.4" x2="162.97" y2="208.57" fill="#e68d40" stroke="#000" stroke-linecap="round" stroke-linejoin="round" stroke-width="3.39"/><line x1="170.32" y1="149.81" x2="158.45" y2="149.81" fill="#e68d40" stroke="#000" stroke-linecap="round" stroke-linejoin="round" stroke-width="3.39"/><line x1="398.58" y1="240.21" x2="405.93" y2="249.82" fill="#e68d40" stroke="#000" stroke-linecap="round" stroke-linejoin="round" stroke-width="3.39"/><line x1="400.28" y1="207.44" x2="403.67" y2="222.7" fill="#e68d40" stroke="#000" stroke-linecap="round" stroke-linejoin="round" stroke-width="3.39"/><line x1="175.97" y1="212.53" x2="168.06" y2="221.57" fill="#e68d40" stroke="#000" stroke-linecap="round" stroke-linejoin="round" stroke-width="3.39"/><line x1="185.57" y1="224.96" x2="179.36" y2="236.26" fill="#e68d40" stroke="#000" stroke-linecap="round" stroke-linejoin="round" stroke-width="3.39"/></g></g></svg>